<?xml version="1.0" encoding="iso-8859-1"?>
<!-- Generator: Adobe Illustrator 19.0.0, SVG Export Plug-In . SVG Version: 6.00 Build 0)  -->
<svg version="1.1" id="Layer_1" xmlns="http://www.w3.org/2000/svg" xmlns:xlink="http://www.w3.org/1999/xlink" x="0px" y="0px"
	 viewBox="0 0 512.008 512.008" style="enable-background:new 0 0 512.008 512.008;" xml:space="preserve">
<path style="fill:#FC6E51;" d="M512.004,256.004c0,141.393-114.596,256.004-255.996,256.004
	c-141.385,0-256.004-114.611-256.004-256.004C0.004,114.627,114.623,0,256.008,0C397.408,0,512.004,114.627,512.004,256.004z"/>
<g>
	<path style="fill:#E9573F;" d="M448.003,213.347c0,29.454-28.656,53.329-64.001,53.329c-35.336,0-63.993-23.875-63.993-53.329
		c0-29.469,28.657-53.344,63.993-53.344C419.347,160.003,448.003,183.878,448.003,213.347z"/>
	<path style="fill:#E9573F;" d="M227.016,384.006c0,17.672-19.102,32-42.665,32c-23.562,0-42.672-14.328-42.672-32
		s19.11-32,42.672-32C207.914,352.006,227.016,366.334,227.016,384.006z"/>
	<path style="fill:#E9573F;" d="M163.827,234.676c0,23.562-23.876,42.672-53.329,42.672c-29.461,0-53.337-19.109-53.337-42.672
		s23.875-42.673,53.337-42.673C139.951,192.003,163.827,211.112,163.827,234.676z"/>
	<path style="fill:#E9573F;" d="M320.009,96.002c-1.156,0-2.281,0.203-3.312,0.531c-0.5,0.172-50.376,16.344-104.251,20.875
		c-51.946,4.359-86.619-7.797-106.564-18.766c-18.321-10.062-27.93-21-30.431-24.11c-5.078,5.047-9.945,10.312-14.586,15.782
		c5.094,5.781,15.859,16.422,33.407,26.282c32.148,18.094,67.829,23.031,97.188,23.031c8.148,0,15.813-0.375,22.774-0.969
		c55.274-4.641,105.228-20.594,109.087-21.859c4.266-1.391,7.359-5.391,7.359-10.125C330.681,100.783,325.9,96.002,320.009,96.002z"
		/>
	<path style="fill:#E9573F;" d="M506.848,307.442c-9.469,1.922-59.407,11.781-108.689,15.922
		c-100.806,8.469-136.057-12.125-136.4-12.328c-1.656-1.062-3.625-1.688-5.75-1.688c-5.891,0-10.672,4.766-10.672,10.656
		c0,3.781,1.969,7.094,4.922,8.984c1.078,0.703,11.297,6.953,34.906,11.829c19.188,3.969,41.454,5.953,66.58,5.953
		c15.062,0,31.164-0.719,48.195-2.141c40.595-3.406,81.596-10.595,101.127-14.313C503.316,322.833,505.254,315.208,506.848,307.442z
		"/>
	<path style="fill:#E9573F;" d="M343.541,416.006c-2.094,0-4.031,0.609-5.672,1.641c-0.469,0.297-47.345,29.36-99.705,33.751
		c-53.696,4.5-100.025-2.891-129.439-9.875c-18.235-4.344-32.407-9.062-41.259-12.345c11.266,12.267,23.711,23.423,37.149,33.298
		c24.422,5.751,59.423,11.626,100.376,11.626c11.235,0,22.923-0.438,34.954-1.453c57.673-4.828,107.189-35.642,109.268-36.938
		c3-1.891,4.984-5.235,4.984-9.032C354.197,420.787,349.432,416.006,343.541,416.006z"/>
</g>
<g>
</g>
<g>
</g>
<g>
</g>
<g>
</g>
<g>
</g>
<g>
</g>
<g>
</g>
<g>
</g>
<g>
</g>
<g>
</g>
<g>
</g>
<g>
</g>
<g>
</g>
<g>
</g>
<g>
</g>
</svg>
