<svg xmlns="http://www.w3.org/2000/svg" viewBox="0 0 512.008 512.008" style="enable-background:new 0 0 512.008 512.008" xml:space="preserve"><path style="fill:#fc6e51" d="M512.004 256.004c0 141.393-114.596 256.004-255.996 256.004C114.623 512.008.004 397.397.004 256.004.004 114.627 114.623 0 256.008 0c141.4 0 255.996 114.627 255.996 256.004z"/><path style="fill:#e9573f" d="M448.003 213.347c0 29.454-28.656 53.329-64.001 53.329-35.336 0-63.993-23.875-63.993-53.329 0-29.469 28.657-53.344 63.993-53.344 35.345 0 64.001 23.875 64.001 53.344zM227.016 384.006c0 17.672-19.102 32-42.665 32-23.562 0-42.672-14.328-42.672-32s19.11-32 42.672-32c23.563 0 42.665 14.328 42.665 32zM163.827 234.676c0 23.562-23.876 42.672-53.329 42.672-29.461 0-53.337-19.109-53.337-42.672s23.875-42.673 53.337-42.673c29.453 0 53.329 19.109 53.329 42.673zM320.009 96.002c-1.156 0-2.281.203-3.312.531-.5.172-50.376 16.344-104.251 20.875-51.946 4.359-86.619-7.797-106.564-18.766-18.321-10.062-27.93-21-30.431-24.11a253.294 253.294 0 0 0-14.586 15.782c5.094 5.781 15.859 16.422 33.407 26.282 32.148 18.094 67.829 23.031 97.188 23.031 8.148 0 15.813-.375 22.774-.969 55.274-4.641 105.228-20.594 109.087-21.859 4.266-1.391 7.359-5.391 7.359-10.125.001-5.891-4.78-10.672-10.671-10.672zM506.848 307.442c-9.469 1.922-59.407 11.781-108.689 15.922-100.806 8.469-136.057-12.125-136.4-12.328a10.612 10.612 0 0 0-5.75-1.688c-5.891 0-10.672 4.766-10.672 10.656 0 3.781 1.969 7.094 4.922 8.984 1.078.703 11.297 6.953 34.906 11.829 19.188 3.969 41.454 5.953 66.58 5.953 15.062 0 31.164-.719 48.195-2.141 40.595-3.406 81.596-10.595 101.127-14.313a263.548 263.548 0 0 0 5.781-22.874zM343.541 416.006c-2.094 0-4.031.609-5.672 1.641-.469.297-47.345 29.36-99.705 33.751-53.696 4.5-100.025-2.891-129.439-9.875-18.235-4.344-32.407-9.062-41.259-12.345a257.376 257.376 0 0 0 37.149 33.298c24.422 5.751 59.423 11.626 100.376 11.626 11.235 0 22.923-.438 34.954-1.453 57.673-4.828 107.189-35.642 109.268-36.938 3-1.891 4.984-5.235 4.984-9.032 0-5.892-4.765-10.673-10.656-10.673z"/></svg>