<svg xmlns="http://www.w3.org/2000/svg" viewBox="0 0 512 512" style="enable-background:new 0 0 512 512" xml:space="preserve"><path style="fill:#e6e9ed" d="M256.005 0C114.612 0 0 114.611 0 255.997 0 397.39 114.612 512 256.005 512 397.373 512 512 397.39 512 255.997 512 114.611 397.373 0 256.005 0z"/><path style="fill:#ccd1d9" d="M213.332 53.329c5.891 0 10.672 4.773 10.672 10.665 0 5.898-4.781 10.671-10.672 10.671-5.891 0-10.671-4.773-10.671-10.671-.001-5.891 4.78-10.665 10.671-10.665zM224.004 85.33c23.563 0 42.65 19.101 42.65 42.664 0 23.572-19.087 42.672-42.65 42.672s-42.672-19.101-42.672-42.672c0-23.563 19.109-42.664 42.672-42.664zM53.329 277.34c-5.89 0-10.672-4.78-10.672-10.672 0-5.891 4.782-10.671 10.672-10.671 5.891 0 10.672 4.781 10.672 10.671 0 5.892-4.781 10.672-10.672 10.672zM106.659 287.997c-17.672 0-32.001-14.312-32.001-32 0-17.673 14.329-32 32.001-32 17.688 0 32 14.328 32 32 0 17.688-14.313 32-32 32zM106.659 106.666c0-17.672 14.329-32.001 32-32.001 17.688 0 32.001 14.329 32.001 32.001s-14.313 32-32.001 32c-17.672.001-32-14.328-32-32zM170.66 330.67c0 5.891-4.766 10.672-10.656 10.672-5.891 0-10.672-4.781-10.672-10.672s4.781-10.673 10.672-10.673c5.89 0 10.656 4.782 10.656 10.673zM192.003 448c-23.562 0-42.672-19.095-42.672-42.657 0-23.563 19.11-42.673 42.672-42.673s42.657 19.109 42.657 42.673c0 23.562-19.094 42.657-42.657 42.657zM245.332 398.67c0-17.672 14.329-32 32.008-32 17.657 0 32.002 14.328 32.002 32 0 17.673-14.345 32.002-32.002 32.002-17.68 0-32.008-14.329-32.008-32.002zM309.342 469.343c-5.907 0-10.688-4.78-10.688-10.671 0-5.892 4.78-10.672 10.688-10.672 5.875 0 10.655 4.78 10.655 10.672 0 5.89-4.78 10.671-10.655 10.671zM319.997 106.666c0-23.563 19.095-42.672 42.657-42.672 23.594 0 42.688 19.109 42.688 42.672s-19.095 42.664-42.688 42.664c-23.562 0-42.657-19.101-42.657-42.664zM362.654 181.332c-5.875 0-10.656-4.774-10.656-10.665 0-5.89 4.781-10.671 10.656-10.671 5.906 0 10.688 4.781 10.688 10.671.001 5.891-4.781 10.665-10.688 10.665zM415.998 383.998c-17.655 0-32-14.312-32-32 0-17.673 14.345-32.001 32-32.001 17.688 0 32.002 14.328 32.002 32.001 0 17.688-14.314 32-32.002 32zM437.343 309.342c-17.688 0-32-14.345-32-32.002 0-17.68 14.312-32.008 32-32.008 17.657 0 32 14.329 32 32.008 0 17.657-14.343 32.002-32 32.002z"/></svg>