<?xml version="1.0" encoding="iso-8859-1"?>
<!-- Generator: Adobe Illustrator 19.0.0, SVG Export Plug-In . SVG Version: 6.00 Build 0)  -->
<svg version="1.1" id="Layer_1" xmlns="http://www.w3.org/2000/svg" xmlns:xlink="http://www.w3.org/1999/xlink" x="0px" y="0px"
	 viewBox="0 0 512 512" style="enable-background:new 0 0 512 512;" xml:space="preserve">
<path style="fill:#ED5565;" d="M512,255.996C512,397.389,397.404,512,256.004,512C114.627,512,0,397.389,0,255.996
	C0,114.611,114.627,0,256.004,0C397.404,0,512,114.611,512,255.996z"/>
<g>
	<path style="fill:#DA4453;" d="M291.349,241.559c-37.845,7.953-75.751,9.008-112.658,3.148
		c-29.906-4.742-59.282-14.008-87.313-27.531c-38.032-18.337-64.72-40.454-75.345-50.485c-2.72,7.258-5.095,14.68-7.157,22.234
		c14.626,12.579,39.657,31.22,72.814,47.259c29.938,14.5,61.345,24.438,93.345,29.547c16.875,2.688,33.907,4.039,51.063,4.039
		c23.094,0,46.407-2.445,69.626-7.328c74.501-15.656,131.463-13.898,166.151-9.664c24,2.922,40.906,7.406,50.031,10.273
		c0.062-2.344,0.094-4.695,0.094-7.055c0-5.141-0.156-10.242-0.438-15.312c-10.5-2.93-25.906-6.438-45.906-8.938
		C399.561,223.473,334.381,232.52,291.349,241.559z"/>
	<path style="fill:#DA4453;" d="M503,323.56c-12.438,3.562-43.812,11.938-83.438,17.938c-85.118,12.906-142.307,5.188-175.276-3.562
		c-74.095-19.657-135.689-17.032-174.347-11.376c-25.562,3.75-44.625,9.219-55.969,13.063c2.344,6.75,4.969,13.391,7.844,19.875
		c10.562-3.5,28.438-8.547,52.125-11.953c36.501-5.25,94.721-7.594,164.878,11.016c28.219,7.484,59.907,11.234,94.689,11.234
		c27.906,0,57.836-2.422,89.618-7.25c30.282-4.609,55.532-10.438,71.907-14.688C498.062,339.936,500.75,331.841,503,323.56z"/>
	<path style="fill:#DA4453;" d="M355.287,454.968c-12.5-7.75-27.281-13-44.001-15.594c-20.281-3.172-43.501-2.422-69.001,2.219
		c-72.657,13.25-155.877-1.141-165.628-2.922c9.657,9.469,20.032,18.172,31.063,26.048c34.376,3.875,88.063,7.031,138.377-2.126
		c40.157-7.312,73.564-3.969,96.627,9.688c9.875,5.875,15.844,12.375,19.156,16.875c6.562-2.984,12.961-6.234,19.18-9.734
		C376.904,473.062,368.975,463.468,355.287,454.968z"/>
	<path style="fill:#DA4453;" d="M489.344,150.557c-14,1.61-48.438,4.993-89.783,4.907c-70.461-0.148-128.837-10.258-168.775-29.243
		c-49.563-23.547-99.221-31.953-132.127-34.859c-14.719-1.297-27.376-1.656-37.313-1.617c-5.969,6.969-11.562,14.266-16.75,21.859
		c19.281-1.18,98.752-3.297,177.034,33.883c43.469,20.649,103.408,31.18,178.213,31.305c0.438,0,0.875,0,1.312,0
		c49.689,0,88.502-4.711,96.408-5.742C495.125,164.073,492.375,157.237,489.344,150.557z"/>
	<path style="fill:#DA4453;" d="M436.968,74.931C402.123,74.986,326.631,72.58,284.13,52.36
		c-39.157-18.633-90.502-28.336-125.627-33.133c-12.094,4.985-23.72,10.868-34.813,17.571c22.845,2.008,99.846,10.352,151.253,34.82
		c45.845,21.806,122.431,24.696,159.807,24.696c11.095,0,18.72-0.258,21.095-0.344C449.938,88.611,443.656,81.587,436.968,74.931z"
		/>
	<ellipse style="fill:#DA4453;" cx="170.69" cy="394.67" rx="64" ry="32"/>
</g>
<g>
</g>
<g>
</g>
<g>
</g>
<g>
</g>
<g>
</g>
<g>
</g>
<g>
</g>
<g>
</g>
<g>
</g>
<g>
</g>
<g>
</g>
<g>
</g>
<g>
</g>
<g>
</g>
<g>
</g>
</svg>
