<?xml version="1.0" encoding="UTF-8" standalone="no"?>
<!-- Created with Inkscape (http://www.inkscape.org/) -->

<svg
   width="134.96159mm"
   height="134.96159mm"
   viewBox="0 0 134.96159 134.96159"
   version="1.1"
   id="svg4059"
   inkscape:version="1.1 (c4e8f9ed74, 2021-05-24)"
   sodipodi:docname="jungle.svg"
   xmlns:inkscape="http://www.inkscape.org/namespaces/inkscape"
   xmlns:sodipodi="http://sodipodi.sourceforge.net/DTD/sodipodi-0.dtd"
   xmlns="http://www.w3.org/2000/svg"
   xmlns:svg="http://www.w3.org/2000/svg">
  <sodipodi:namedview
     id="namedview4061"
     pagecolor="#505050"
     bordercolor="#ffffff"
     borderopacity="1"
     inkscape:pageshadow="0"
     inkscape:pageopacity="0"
     inkscape:pagecheckerboard="1"
     inkscape:document-units="mm"
     showgrid="false"
     inkscape:zoom="1.4431818"
     inkscape:cx="443.81103"
     inkscape:cy="256.37796"
     inkscape:window-width="1900"
     inkscape:window-height="1009"
     inkscape:window-x="0"
     inkscape:window-y="0"
     inkscape:window-maximized="1"
     inkscape:current-layer="layer2"
     inkscape:snap-global="false"
     showguides="true"
     inkscape:guide-bbox="true">
    <inkscape:grid
       type="xygrid"
       id="grid23338"
       originx="-40.040628"
       originy="-79.778129" />
    <sodipodi:guide
       position="106.80937,0.23972719"
       orientation="0,-1"
       id="guide52655" />
    <sodipodi:guide
       position="134.81804,65.183833"
       orientation="1,0"
       id="guide52657" />
  </sodipodi:namedview>
  <defs
     id="defs4056">
    <linearGradient
       id="linearGradient12850"
       inkscape:swatch="solid">
      <stop
         style="stop-color:#774324;stop-opacity:1;"
         offset="0"
         id="stop12848" />
    </linearGradient>
  </defs>
  <g
     inkscape:label="Layer 1"
     inkscape:groupmode="layer"
     id="layer1"
     transform="translate(-40.040629,-79.778132)">
    <circle
       style="fill:#775f29;fill-opacity:1;stroke:#ffffff;stroke-width:0.264583;stroke-opacity:0"
       id="path16517"
       cx="107.52142"
       cy="147.25893"
       r="67.348503" />
    <path
       style="fill:#4e9846;fill-opacity:1;stroke:none;stroke-width:0.692913;stroke-opacity:1;paint-order:stroke fill markers"
       d="M 390.9531,810.29596 C 294.55357,804.4738 209.48467,744.01482 171.87204,654.59374 c -8.4549,-20.10087 -14.50212,-42.58238 -17.74336,-65.96382 -1.51492,-10.92823 -2.09541,-40.98554 -1.03437,-53.55832 2.71706,-32.19559 12.08677,-64.98983 26.83806,-93.93395 12.2913,-24.11726 26.53501,-43.67575 46.30385,-63.58132 40.58911,-40.86981 90.87093,-65.57816 149.32284,-73.37684 11.30789,-1.5087 36.94134,-2.08237 49.54779,-1.10886 33.61649,2.59595 63.07804,10.68987 93.53882,25.69773 15.40962,7.59224 27.56985,14.94764 39.30206,23.77276 56.2481,42.31056 91.05998,101.88653 100.70346,172.34077 1.5178,11.08889 2.0956,40.39943 1.04094,52.80473 -9.65585,113.57562 -93.16416,206.56951 -205.14095,228.44259 -10.85663,2.12069 -21.87656,3.46606 -34.64567,4.22975 -12.62751,0.7552 -15.50903,0.74894 -28.95241,-0.063 z"
       id="path38652"
       transform="scale(0.26458333)" />
    <path
       style="fill:#007f8b;fill-opacity:0.351675;stroke:none;stroke-width:0.0776663;stroke-opacity:1;paint-order:stroke fill markers"
       d="m 85.840718,136.29003 c -0.592125,-0.0252 -1.190243,-0.0818 -1.329153,-0.12579 -0.13892,-0.044 -0.52244,-0.0801 -0.852299,-0.0803 -1.581862,-0.001 -4.346702,-0.49412 -5.803259,-1.03492 -1.125916,-0.41806 -1.863959,-0.64557 -2.094121,-0.64557 -0.226029,0 -1.229588,-0.54535 -1.599433,-0.86915 -0.172026,-0.1506 -0.365648,-0.27386 -0.430259,-0.27386 -0.14466,0 -1.046396,-0.82772 -1.45295,-1.33368 -0.297849,-0.37068 -0.299622,-0.37797 -0.299622,-1.227 0,-1.16495 0.146876,-2.17053 0.363486,-2.48875 0.09615,-0.14124 0.174795,-0.36278 0.174795,-0.49231 0,-0.12949 0.08076,-0.38903 0.179428,-0.57666 0.09869,-0.1876 0.179428,-0.39846 0.179428,-0.46849 0,-0.17388 0.422771,-1.18436 0.6338,-1.51496 0.09441,-0.14798 0.196749,-0.37484 0.227413,-0.50426 0.03064,-0.12949 0.168476,-0.49251 0.306276,-0.80683 l 0.250549,-0.5715 -0.07079,-1.45688 c -0.05289,-1.08856 -0.105537,-1.5091 -0.208254,-1.6634 -0.0756,-0.1136 -0.164071,-0.30516 -0.196573,-0.4257 -0.08132,-0.30148 -0.560821,-1.45755 -0.857847,-2.06819 -0.134892,-0.27734 -0.290685,-0.67065 -0.346174,-0.87405 -0.05549,-0.20348 -0.218073,-0.52106 -0.361265,-0.70595 -0.40019,-0.51671 -1.274499,-1.29829 -1.638146,-1.46443 -0.179654,-0.0821 -0.496851,-0.29475 -0.704911,-0.47264 -0.416292,-0.35588 -1.769624,-0.91625 -2.565589,-1.0623 -0.239019,-0.044 -0.505238,-0.13449 -0.59159,-0.20152 -0.199947,-0.15495 -0.206643,-0.62733 -0.01284,-0.90054 0.0787,-0.11099 0.199845,-0.34213 0.269177,-0.51377 0.09635,-0.23852 0.267427,-0.41118 0.725893,-0.73259 1.060122,-0.74319 2.30949,-1.28643 3.845664,-1.67215 1.402809,-0.35221 2.187868,-0.41867 4.679734,-0.39613 l 2.222644,0.0196 0.713832,0.25541 c 0.764316,0.27349 1.484208,0.67092 1.484208,0.8194 0,0.0501 0.161779,0.32783 0.359492,0.61743 0.197731,0.28959 0.443452,0.78369 0.546071,1.09803 0.102616,0.31432 0.244557,0.72356 0.315407,0.90942 0.07087,0.18585 0.165933,0.63969 0.211325,1.00854 0.108055,0.8784 0.482827,1.83561 1.046273,2.67227 0.381388,0.56631 1.551083,1.37111 2.707892,1.86312 0.539265,0.22936 1.197718,0.55188 1.463219,0.71666 0.265506,0.16475 0.817606,0.45232 1.226891,0.63889 0.409291,0.1865 0.9745,0.49847 1.256025,0.69312 0.281526,0.19455 0.63298,0.40173 0.781011,0.46019 0.148033,0.0585 0.490671,0.24415 0.761419,0.41266 0.270748,0.16844 0.694655,0.37865 0.942015,0.467 0.270893,0.0968 0.699491,0.35532 1.07776,0.65018 0.345404,0.26925 0.910613,0.67127 1.256017,0.89338 0.345404,0.22211 0.673432,0.4516 0.728944,0.50994 0.215329,0.22638 0.93985,1.24904 1.349961,1.90545 l 0.430093,0.68839 -3.85e-4,2.35323 c -2.62e-4,1.53533 -0.03681,2.48177 -0.105059,2.72303 -0.159362,0.56317 -0.302771,0.9431 -0.486869,1.28995 -0.09197,0.17323 -0.167218,0.39062 -0.167218,0.48305 0,0.23523 -0.905998,1.06739 -1.666125,1.53034 -1.26025,0.76755 -2.736618,1.39866 -4.171569,1.78325 -0.606991,0.16278 -0.799281,0.17998 -2.147016,0.19325 -0.81417,0.009 -1.964776,-0.007 -2.556898,-0.0313 z"
       id="path45515" />
    <path
       style="fill:#007f8b;fill-opacity:0.430433;stroke:none;stroke-width:0.222264;stroke-opacity:1;paint-order:stroke fill markers"
       d="m 104.74789,190.83868 c -0.53966,-0.40466 -1.39965,-1.16378 -1.91105,-1.68713 -0.51141,-0.52337 -1.39623,-1.35049 -1.9663,-1.83804 -0.57007,-0.48755 -1.258445,-1.23904 -1.529723,-1.66997 -0.271293,-0.43092 -1.312583,-1.67992 -1.897703,-2.97988 -1.318958,-2.93034 -1.563609,-3.15605 -1.360026,-5.52479 0.163514,-1.90235 1.174329,-4.45409 1.895981,-5.07932 0.580403,-0.50285 0.796108,-0.69605 2.715911,-1.51729 0.36786,-0.15723 1.54623,-0.1517 2.6186,0.0129 1.07238,0.16405 1.91591,0.14193 2.7078,0.0234 0.8862,-0.32153 5.2484,-3.66056 5.86813,-4.49172 0.6109,-0.81934 2.88388,-2.27759 3.23037,-2.35363 0.42942,-0.0944 2.19664,-0.50056 2.67293,-1.04136 0.25309,-0.28736 0.58722,-0.39311 0.83063,-0.26284 0.22398,0.11963 0.80736,-0.004 1.29635,-0.27378 0.77249,-0.42717 1.05652,-0.42512 2.16522,0.0147 1.00455,0.3993 1.62288,0.44403 2.90562,0.21027 1.48168,-0.27003 1.74916,-0.23292 2.94834,0.40877 1.23431,0.66047 1.37024,0.67519 2.12058,0.22851 0.75716,-0.45067 0.85729,-0.43861 1.80238,0.21684 0.68268,0.47343 1.2171,0.67682 1.68161,0.63981 0.38719,0.15262 0.72329,0.37279 1.18132,0.54375 0.39111,0.14581 1.05763,0.39445 1.75201,0.48383 0.65513,0.0844 1.68286,0.31246 2.28386,0.50709 1.42088,0.46018 2.4058,0.29377 3.05329,-0.51592 0.42194,-0.52766 0.91256,-0.68388 2.56323,-0.81621 1.68962,-0.13567 2.28754,-0.0549 3.46964,0.46801 0.78553,0.34733 1.76284,0.68042 2.16578,1.22384 l 0.32361,0.63298 0.0897,1.32211 c 0.0113,0.17142 -0.44474,1.23233 -1.64383,1.56556 -1.0323,0.28685 -3.57434,1.10262 -4.20927,2.07011 -0.55735,0.84933 -2.64915,2.33294 -6.3523,4.50541 -0.63412,0.37201 -0.72286,0.97447 -1.42005,1.75527 -1.01008,1.13118 -1.3561,0.73627 -2.03941,0.88403 -1.32296,0.28611 -1.48601,-0.0407 -4.76594,2.20161 -0.74197,0.50722 -1.96298,1.12872 -2.71337,1.38103 -0.86202,0.28986 -1.63089,0.77158 -2.08831,1.30839 -0.39818,0.46727 -1.03772,0.97379 -1.42117,1.12551 -0.38348,0.1517 -0.99425,0.72449 -1.35729,1.27272 -0.75192,1.13551 -1.41536,1.78433 -3.25266,3.18112 -0.71165,0.541 -1.75949,1.4865 -2.32855,2.10107 -1.18147,1.27604 -3.86565,2.77689 -5.3369,2.98424 -0.90582,0.12755 -1.21499,0.0208 -3.38236,-1.1727 -1.31199,-0.72222 -2.82696,-1.64417 -3.36665,-2.04873 z"
       id="path47103"
       sodipodi:nodetypes="csssssssccssscccsscscscsscsccssssssssssssssccc" />
  </g>
  <g
     inkscape:groupmode="layer"
     id="layer2"
     inkscape:label="Layer 2"
     transform="translate(-40.040629,-79.778132)">
    <ellipse
       style="fill:#d4ffff;fill-opacity:0.205976;stroke:#f1f0ff;stroke-width:0.264583;stroke-opacity:0.00179599;paint-order:stroke fill markers"
       id="path52762"
       cx="107.93247"
       cy="147.60876"
       rx="60.924671"
       ry="61.676983" />
  </g>
</svg>
