<svg width="510.091" height="510.091" viewBox="0 0 134.962 134.962" xmlns="http://www.w3.org/2000/svg"><g transform="translate(-40.04 -79.778)"><circle style="fill:#775f29;fill-opacity:1;stroke:#fff;stroke-width:.264583;stroke-opacity:0" cx="107.521" cy="147.259" r="67.349"/><path style="fill:#4e9846;fill-opacity:1;stroke:none;stroke-width:.692913;stroke-opacity:1;paint-order:stroke fill markers" d="M390.953 810.296c-96.4-5.822-181.468-66.281-219.081-155.702-8.455-20.101-14.502-42.583-17.743-65.964-1.515-10.928-2.096-40.986-1.035-53.558 2.717-32.196 12.087-64.99 26.838-93.934 12.292-24.118 26.535-43.676 46.304-63.582 40.59-40.87 90.871-65.578 149.323-73.377 11.308-1.508 36.941-2.082 49.548-1.108 33.616 2.596 63.078 10.69 93.539 25.697 15.41 7.593 27.57 14.948 39.302 23.773 56.248 42.31 91.06 101.887 100.703 172.34 1.518 11.09 2.096 40.4 1.041 52.806-9.656 113.575-93.164 206.57-205.14 228.442-10.857 2.12-21.877 3.466-34.646 4.23-12.628.755-15.51.749-28.953-.063z" transform="scale(.26458)"/><path style="fill:#007f8b;fill-opacity:.351675;stroke:none;stroke-width:.0776663;stroke-opacity:1;paint-order:stroke fill markers" d="M85.84 136.29c-.591-.025-1.19-.082-1.328-.126-.14-.044-.523-.08-.853-.08-1.582-.001-4.346-.494-5.803-1.035-1.126-.418-1.864-.646-2.094-.646-.226 0-1.23-.545-1.6-.869-.172-.15-.365-.274-.43-.274-.144 0-1.046-.827-1.453-1.333-.298-.37-.3-.378-.3-1.227 0-1.165.147-2.17.364-2.489.096-.141.175-.363.175-.492 0-.13.08-.39.18-.577.098-.188.179-.398.179-.468 0-.174.423-1.185.634-1.515.094-.148.196-.375.227-.505.03-.13.168-.492.306-.806l.25-.572-.07-1.457c-.053-1.088-.106-1.509-.208-1.663a1.75 1.75 0 0 1-.197-.426c-.081-.301-.56-1.458-.858-2.068a6.293 6.293 0 0 1-.346-.874 2.437 2.437 0 0 0-.361-.706c-.4-.517-1.275-1.298-1.638-1.465a3.761 3.761 0 0 1-.705-.472c-.416-.356-1.77-.916-2.566-1.063-.239-.044-.505-.134-.591-.201-.2-.155-.207-.627-.013-.9.079-.112.2-.343.269-.514.096-.239.267-.412.726-.733 1.06-.743 2.31-1.286 3.846-1.672 1.402-.352 2.187-.419 4.68-.396l2.222.02.714.255c.764.273 1.484.67 1.484.82 0 .05.162.327.36.617.197.29.443.783.546 1.098.102.314.244.723.315.909.07.186.166.64.211 1.009.108.878.483 1.835 1.047 2.672.38.566 1.55 1.371 2.707 1.863.54.23 1.198.552 1.464.717.265.164.817.452 1.227.639.409.186.974.498 1.256.693.281.194.633.401.78.46.149.058.491.244.762.412.27.169.695.38.942.467.27.097.7.356 1.078.65.345.27.91.672 1.256.894.345.222.673.452.729.51.215.226.94 1.249 1.35 1.905l.43.689v2.353c0 1.535-.037 2.482-.106 2.723-.159.563-.302.943-.487 1.29-.091.173-.167.39-.167.483 0 .235-.906 1.067-1.666 1.53a16.383 16.383 0 0 1-4.171 1.784c-.607.162-.8.18-2.147.193a60.269 60.269 0 0 1-2.557-.031z"/><path style="fill:#007f8b;fill-opacity:.430433;stroke:none;stroke-width:.222264;stroke-opacity:1;paint-order:stroke fill markers" d="M104.748 190.839c-.54-.405-1.4-1.164-1.911-1.687a36.476 36.476 0 0 0-1.966-1.838c-.57-.488-1.259-1.24-1.53-1.67-.271-.431-1.313-1.68-1.898-2.98-1.319-2.93-1.563-3.156-1.36-5.525.164-1.902 1.174-4.454 1.896-5.08.58-.502.796-.695 2.716-1.517.368-.157 1.546-.151 2.619.013 1.072.164 1.915.142 2.707.024.887-.322 5.249-3.661 5.869-4.492.61-.82 2.883-2.278 3.23-2.354.43-.094 2.197-.5 2.673-1.041.253-.288.587-.393.83-.263.224.12.808-.004 1.297-.274.772-.427 1.056-.425 2.165.015 1.005.4 1.623.444 2.906.21 1.481-.27 1.749-.233 2.948.409 1.234.66 1.37.675 2.12.228.758-.45.858-.438 1.803.217.683.474 1.217.677 1.682.64.387.153.723.373 1.18.544.392.146 1.058.394 1.753.484.655.084 1.683.312 2.284.507 1.42.46 2.406.294 3.053-.516.422-.528.913-.684 2.563-.816 1.69-.136 2.288-.055 3.47.468.785.347 1.763.68 2.166 1.224l.323.633.09 1.322c.011.171-.445 1.232-1.644 1.565-1.032.287-3.574 1.103-4.21 2.07-.556.85-2.648 2.333-6.351 4.506-.635.372-.723.974-1.42 1.755-1.01 1.131-1.357.736-2.04.884-1.323.286-1.486-.04-4.766 2.202-.742.507-1.963 1.128-2.713 1.38-.862.29-1.631.772-2.089 1.309-.398.467-1.037.974-1.42 1.126-.384.151-.995.724-1.358 1.272-.752 1.136-1.415 1.785-3.253 3.181a21.862 21.862 0 0 0-2.328 2.101c-1.182 1.276-3.866 2.777-5.337 2.985-.906.127-1.215.02-3.382-1.173-1.312-.722-2.827-1.644-3.367-2.049z"/></g><ellipse style="fill:#d4ffff;fill-opacity:.205976;stroke:#f1f0ff;stroke-width:.264583;stroke-opacity:.00179599;paint-order:stroke fill markers" cx="107.932" cy="147.609" rx="60.925" ry="61.677" transform="translate(-40.04 -79.778)"/></svg>