<?xml version="1.0" encoding="iso-8859-1"?>
<!-- Generator: Adobe Illustrator 19.0.0, SVG Export Plug-In . SVG Version: 6.00 Build 0)  -->
<svg version="1.1" id="Capa_1" xmlns="http://www.w3.org/2000/svg" xmlns:xlink="http://www.w3.org/1999/xlink" x="0px" y="0px"
	 viewBox="0 0 496.003 496.003" style="enable-background:new 0 0 496.003 496.003;" xml:space="preserve">
<g>
	<path style="fill:#B68052;" d="M206.111,14.405c1.127-0.16,2.251-0.33,3.384-0.474C208.362,14.075,207.238,14.245,206.111,14.405z"
		/>
	<path style="fill:#B68052;" d="M225.048,12.481c0.876-0.054,1.749-0.122,2.628-0.167C226.797,12.359,225.924,12.427,225.048,12.481
		z"/>
	<path style="fill:#B68052;" d="M199.858,15.377c1.221-0.206,2.439-0.421,3.666-0.608C202.297,14.956,201.079,15.17,199.858,15.377z
		"/>
	<path style="fill:#B68052;" d="M231.795,12.157c0.675-0.023,1.347-0.06,2.023-0.077C233.142,12.097,232.47,12.134,231.795,12.157z"
		/>
	<path style="fill:#B68052;" d="M212.396,13.598c1.038-0.12,2.073-0.251,3.115-0.357C214.469,13.348,213.434,13.479,212.396,13.598z
		"/>
	<path style="fill:#B68052;" d="M455.375,337.681l-112.117-43.445l-7.336-51.367c-0.516-3.609-3.414-6.414-7.039-6.82l-62.164-6.906
		l20.867-62.609c0.672-2.016,0.516-4.211-0.43-6.109l-21.805-43.609l16.77-22.647c-58.588,24.927-105.228,72.476-128.965,131.679
		l0.032,0.032l0,0l44.468,44.468c0.257,0.257,0.363,0.588,0.578,0.869c0.341,0.445,0.672,0.87,0.914,1.375
		c0.222,0.467,0.34,0.94,0.467,1.434c0.131,0.498,0.259,0.975,0.292,1.496c0.034,0.55-0.048,1.074-0.127,1.62
		c-0.051,0.355,0.018,0.704-0.083,1.058l-15.964,55.875l21.964,25.625c2.883,3.352,2.492,8.398-0.867,11.273
		c-1.508,1.297-3.359,1.93-5.203,1.93c-2.25,0-4.492-0.945-6.07-2.797l-44.961-52.453c-2.883-3.352-2.492-8.398,0.867-11.273
		s8.406-2.492,11.273,0.867l10.513,12.265l11.766-41.181l-35.796-35.796l-0.031-0.031C139.925,265.404,136,289.792,136,315.099
		c0,68.614,28.84,130.454,75.002,174.194C92.291,474.985,0.247,374.082,0.011,251.568C0.185,154.532,58.238,70.82,141.419,33.193
		C58.109,70.875,0,154.78,0,252.001c0,132.336,107.664,240,240,240c-3.925,0-7.825-0.109-11.705-0.297l11.416-34.234
		c1.398-4.188,5.883-6.469,10.117-5.055c4.188,1.398,6.453,5.922,5.055,10.117l-9.764,29.28c-1.711,0.037-3.401,0.189-5.119,0.189
		c95.226,0,181.508-56.383,219.812-143.641c0.875-2,0.898-4.273,0.063-6.289C459.031,340.056,457.414,338.47,455.375,337.681z
		 M417.848,412.91l-41.108-12.333l-37.162,18.581c-1.148,0.57-2.367,0.844-3.57,0.844c-2.938,0-5.758-1.617-7.164-4.422
		c-1.977-3.953-0.375-8.758,3.578-10.734l21.955-10.978l-20.674-6.202c-4.234-1.273-6.633-5.734-5.367-9.961
		c1.266-4.234,5.719-6.617,9.961-5.367l90.772,27.232C425.48,404.164,421.741,408.61,417.848,412.91z"/>
	<path style="fill:#B68052;" d="M193.888,16.464c1.236-0.242,2.47-0.49,3.714-0.713C196.359,15.974,195.125,16.223,193.888,16.464z"
		/>
	<path style="fill:#B68052;" d="M218.741,12.954c0.944-0.083,1.884-0.18,2.83-0.252C220.625,12.774,219.685,12.871,218.741,12.954z"
		/>
	<path style="fill:#B68052;" d="M141.654,33.09c1.692-0.763,3.393-1.51,5.106-2.235C145.048,31.58,143.346,32.327,141.654,33.09z"/>
	<path style="fill:#B68052;" d="M182.01,19.101c1.296-0.323,2.591-0.65,3.895-0.952C184.6,18.451,183.306,18.778,182.01,19.101z"/>
	<path style="fill:#B68052;" d="M175.864,20.717c1.421-0.394,2.841-0.789,4.272-1.158C178.705,19.928,177.284,20.323,175.864,20.717
		z"/>
	<path style="fill:#B68052;" d="M169.971,22.434c1.481-0.453,2.963-0.902,4.456-1.327C172.934,21.531,171.452,21.981,169.971,22.434
		z"/>
	<path style="fill:#B68052;" d="M158.58,26.23c1.525-0.552,3.053-1.097,4.593-1.619C161.634,25.133,160.106,25.678,158.58,26.23z"/>
	<path style="fill:#B68052;" d="M187.951,17.703c1.257-0.279,2.512-0.564,3.776-0.823C190.462,17.139,189.208,17.424,187.951,17.703
		z"/>
	<path style="fill:#B68052;" d="M164.278,24.252c1.493-0.498,2.988-0.991,4.493-1.46C167.265,23.26,165.771,23.754,164.278,24.252z"
		/>
	<path style="fill:#B68052;" d="M147.176,30.685c1.655-0.697,3.318-1.38,4.992-2.041C150.494,29.305,148.831,29.988,147.176,30.685z
		"/>
	<path style="fill:#B68052;" d="M152.787,28.408c1.61-0.63,3.225-1.249,4.851-1.845C156.011,27.159,154.397,27.778,152.787,28.408z"
		/>
	<path style="fill:#B68052;" d="M364.117,194.861l120-72c2.031-1.219,3.422-3.273,3.789-5.617s-0.328-4.727-1.883-6.508
		L444.64,63.441l-79.578,130.853L364.117,194.861z"/>
	<path style="fill:#B68052;" d="M495.031,216.181c-1.25-2.297-3.547-3.844-6.148-4.133l-72-8l51.117,5.68l-47.999,16.149
		c0,0-8.735,10.62-17.626,20.257l58.046,29.023c1.148,0.57,2.367,0.844,3.57,0.844c2.938,0,5.758-1.617,7.164-4.422l24-48
		C496.328,221.236,496.281,218.478,495.031,216.181z"/>
	<path style="fill:#B68052;" d="M342.643,117.26l-8.136,11.39l40-56c1.727-2.406,1.977-5.578,0.648-8.227l-16-32l-18.49,55.578
		L342.643,117.26z"/>
	<path style="fill:#825A38;" d="M333.656,166.345c-3.125-3.125-8.188-3.125-11.313,0l-16,16c-3.125,3.125-3.125,8.187,0,11.312
		c1.563,1.563,3.609,2.344,5.656,2.344s4.094-0.781,5.656-2.344l16-16C336.781,174.533,336.781,169.47,333.656,166.345z"/>
	<path style="fill:#825A38;" d="M336,228.001h16c4.422,0,8-3.578,8-8s-3.578-8-8-8h-16c-4.422,0-8,3.578-8,8
		S331.578,228.001,336,228.001z"/>
	<path style="fill:#825A38;" d="M421.469,299.587c0.844,0.281,1.695,0.414,2.531,0.414c3.352,0,6.469-2.117,7.586-5.469
		c1.398-4.195-0.867-8.727-5.055-10.117l-24-8c-4.234-1.406-8.719,0.867-10.117,5.055c-1.398,4.195,0.867,8.727,5.055,10.117
		L421.469,299.587z"/>
	<path style="fill:#825A38;" d="M461.469,164.416l-24,8c-4.188,1.391-6.453,5.922-5.055,10.117c1.117,3.352,4.234,5.469,7.586,5.469
		c0.836,0,1.688-0.133,2.531-0.414l24-8c4.188-1.391,6.453-5.922,5.055-10.117C470.187,165.283,465.695,163.001,461.469,164.416z"/>
	<path style="fill:#825A38;" d="M392,36.002c2.047,0,4.094-0.781,5.656-2.344l16-16c3.125-3.125,3.125-8.188,0-11.313
		s-8.188-3.125-11.313,0l-16,16c-3.125,3.125-3.125,8.188,0,11.313C387.906,35.22,389.953,36.002,392,36.002z"/>
	<path style="fill:#825A38;" d="M469.656,310.345c-3.125-3.125-8.188-3.125-11.313,0s-3.125,8.188,0,11.313l8,8
		c1.563,1.563,3.609,2.344,5.656,2.344s4.094-0.781,5.656-2.344c3.125-3.125,3.125-8.188,0-11.313L469.656,310.345z"/>
	<path style="fill:#825A38;" d="M179.633,116.001c1.672,0,3.352-0.523,4.789-1.602l32-24c1.648-1.234,2.758-3.055,3.094-5.086l8-48
		c0.727-4.352-2.219-8.477-6.578-9.203c-4.383-0.781-8.484,2.219-9.203,6.578l-7.477,44.836l-29.43,22.078
		c-3.539,2.648-4.258,7.664-1.602,11.195C174.797,114.9,177.195,116.001,179.633,116.001z"/>
	<path style="fill:#825A38;" d="M129.008,213.009c-3.125,3.125-3.125,8.188,0,11.313l18.179,18.179l0.031,0.031
		c1.79-5.646,3.784-11.197,5.971-16.654l-0.032-0.032l-12.836-12.836C137.195,209.884,132.133,209.884,129.008,213.009z"/>
	<path style="fill:#825A38;" d="M87.594,297.494c-0.329-0.996-0.856-1.922-1.554-2.727c-0.703-0.815-1.552-1.471-2.5-1.941
		l-15.961-7.98c-3.961-1.969-8.75-0.375-10.734,3.578c-1.977,3.953-0.375,8.758,3.578,10.734l13.041,6.52l6.952,20.854
		c1.117,3.352,4.234,5.469,7.586,5.469c0.836,0,1.688-0.133,2.531-0.414c4.188-1.391,6.453-5.922,5.055-10.117L87.594,297.494z"/>
	<path style="fill:#825A38;" d="M57.308,96.622l33.036,33.036c1.563,1.563,3.609,2.344,5.656,2.344s4.094-0.781,5.656-2.344
		c3.125-3.125,3.125-8.187,0-11.312L68.091,84.78C64.368,88.607,60.772,92.555,57.308,96.622z"/>
	<path style="fill:#9D693C;" d="M183.013,278.327l-11.766,41.181l-10.513-12.265c-2.867-3.359-7.914-3.742-11.273-0.867
		s-3.75,7.922-0.867,11.273l44.961,52.453c1.578,1.852,3.82,2.797,6.07,2.797c1.844,0,3.695-0.633,5.203-1.93
		c3.359-2.875,3.75-7.922,0.867-11.273l-21.964-25.625l15.964-55.875c0.101-0.354,0.032-0.703,0.083-1.058
		c0.079-0.546,0.161-1.07,0.127-1.62c-0.032-0.521-0.161-0.998-0.292-1.496c-0.127-0.493-0.245-0.967-0.467-1.434
		c-0.241-0.505-0.572-0.931-0.914-1.375c-0.214-0.281-0.321-0.612-0.578-0.869l-44.468-44.468l0,0
		c-2.188,5.457-4.182,11.008-5.971,16.654L183.013,278.327z"/>
	<path style="fill:#9D693C;" d="M254.883,462.533c1.398-4.195-0.867-8.719-5.055-10.117c-4.234-1.414-8.719,0.867-10.117,5.055
		l-11.416,34.234c3.88,0.188,7.78,0.297,11.705,0.297c1.717,0,3.408-0.152,5.119-0.189L254.883,462.533z"/>
	<path style="fill:#9D693C;" d="M328.336,377.704c-1.266,4.227,1.133,8.688,5.367,9.961l20.674,6.202l-21.955,10.978
		c-3.953,1.977-5.555,6.781-3.578,10.734c1.406,2.805,4.227,4.422,7.164,4.422c1.203,0,2.422-0.273,3.57-0.844l37.162-18.581
		l41.108,12.333c3.893-4.3,7.632-8.745,11.221-13.34l-90.772-27.232C334.054,371.087,329.601,373.47,328.336,377.704z"/>
	<path style="fill:#9D693C;" d="M320,92.001v32c0,3.477,2.25,6.555,5.555,7.617c0.805,0.258,1.633,0.383,2.445,0.383
		c2.531,0,4.977-1.211,6.508-3.352l8.136-11.39l-1.977-29.258l18.49-55.578c-1.398-2.789-4.313-4.469-7.391-4.422
		c-3.117,0.094-5.891,1.984-7.117,4.852l-24,56C320.219,89.845,320,90.916,320,92.001z"/>
	<path style="fill:#9D693C;" d="M352,156.001v32c0,2.883,1.547,5.539,4.055,6.961c1.227,0.695,2.586,1.039,3.945,1.039
		c1.422,0,2.852-0.383,4.117-1.141l0.945-0.567L444.64,63.441l0,0l-14.617-16.705c-1.68-1.914-4.203-2.977-6.688-2.703
		c-2.539,0.211-4.82,1.609-6.148,3.773l-64,104C352.414,153.072,352,154.517,352,156.001z"/>
	<path style="fill:#9D693C;" d="M468,209.728l-51.117-5.68c-1.523-0.156-3.07,0.109-4.461,0.797l-32,16
		c-2.711,1.359-4.422,4.125-4.422,7.156s1.711,5.797,4.422,7.156l21.954,10.977c0,0,0,0,0,0
		c8.891-9.638,17.626-20.257,17.626-20.257L468,209.728z"/>
	<path style="fill:#9D693C;" d="M0.011,251.568c0.236,122.514,92.279,223.417,210.991,237.725
		C164.84,445.553,136,383.712,136,315.099c0-25.307,3.925-49.695,11.187-72.598l-18.179-18.179c-3.125-3.125-3.125-8.188,0-11.313
		s8.188-3.125,11.313,0l12.836,12.836c23.737-59.203,70.377-106.752,128.965-131.679c0,0,0,0,0,0l41.596-56.173
		c1.508-2.039,1.961-4.672,1.219-7.102c-0.742-2.422-2.594-4.352-4.984-5.203C294.226,16.611,267.328,12.002,240,12.002
		c-2.067,0-4.127,0.026-6.182,0.078c-0.677,0.017-1.348,0.054-2.023,0.077c-1.375,0.046-2.75,0.087-4.119,0.157
		c-0.879,0.045-1.751,0.113-2.628,0.167c-1.159,0.072-2.321,0.133-3.476,0.221c-0.947,0.072-1.887,0.169-2.83,0.252
		c-1.077,0.095-2.157,0.179-3.23,0.288c-1.042,0.106-2.077,0.237-3.115,0.357c-0.967,0.111-1.938,0.21-2.902,0.333
		c-1.132,0.144-2.256,0.314-3.384,0.474c-0.862,0.122-1.728,0.231-2.587,0.363c-1.227,0.188-2.445,0.402-3.666,0.608
		c-0.751,0.127-1.507,0.241-2.256,0.375c-1.243,0.223-2.477,0.471-3.714,0.713c-0.72,0.141-1.444,0.268-2.161,0.415
		c-1.264,0.259-2.519,0.544-3.776,0.823c-0.681,0.151-1.367,0.29-2.046,0.447c-1.305,0.302-2.599,0.629-3.895,0.952
		c-0.624,0.155-1.252,0.298-1.874,0.458c-1.431,0.369-2.852,0.763-4.272,1.158c-0.478,0.133-0.96,0.254-1.437,0.39
		c-1.493,0.425-2.975,0.874-4.456,1.327c-0.399,0.122-0.802,0.234-1.2,0.358c-1.506,0.469-3,0.963-4.493,1.46
		c-0.367,0.122-0.738,0.235-1.104,0.359c-1.539,0.522-3.068,1.067-4.593,1.619c-0.313,0.113-0.63,0.218-0.943,0.333
		c-1.626,0.596-3.241,1.215-4.851,1.845c-0.206,0.081-0.414,0.155-0.619,0.236c-1.674,0.661-3.336,1.344-4.992,2.041
		c-0.138,0.058-0.278,0.112-0.416,0.17c-1.713,0.725-3.414,1.472-5.106,2.235c-0.078,0.035-0.157,0.068-0.235,0.103
		C58.238,70.82,0.185,154.532,0.011,251.568z M174.828,101.603l29.43-22.078l7.477-44.836c0.719-4.359,4.82-7.359,9.203-6.578
		c4.359,0.727,7.305,4.852,6.578,9.203l-8,48c-0.336,2.031-1.445,3.852-3.094,5.086l-32,24c-1.438,1.078-3.117,1.602-4.789,1.602
		c-2.438,0-4.836-1.102-6.406-3.203C170.57,109.267,171.289,104.251,174.828,101.603z M90.531,331.587
		c-0.844,0.281-1.695,0.414-2.531,0.414c-3.352,0-6.469-2.117-7.586-5.469l-6.952-20.854l-13.041-6.52
		c-3.953-1.977-5.555-6.781-3.578-10.734c1.984-3.953,6.773-5.547,10.734-3.578l15.961,7.98c0.949,0.47,1.798,1.126,2.5,1.941
		c0.698,0.805,1.225,1.731,1.554,2.727l7.992,23.977C96.984,325.665,94.719,330.197,90.531,331.587z M101.656,129.658
		c-1.563,1.563-3.609,2.344-5.656,2.344s-4.094-0.781-5.656-2.344L57.308,96.622c3.464-4.067,7.06-8.015,10.783-11.842
		l33.565,33.565C104.781,121.47,104.781,126.533,101.656,129.658z"/>
</g>
<g>
</g>
<g>
</g>
<g>
</g>
<g>
</g>
<g>
</g>
<g>
</g>
<g>
</g>
<g>
</g>
<g>
</g>
<g>
</g>
<g>
</g>
<g>
</g>
<g>
</g>
<g>
</g>
<g>
</g>
</svg>
