<svg xmlns="http://www.w3.org/2000/svg" viewBox="0 0 496.003 496.003" style="enable-background:new 0 0 496.003 496.003" xml:space="preserve"><path style="fill:#b68052" d="M206.111 14.405c1.127-.16 2.251-.33 3.384-.474-1.133.144-2.257.314-3.384.474zM225.048 12.481c.876-.054 1.749-.122 2.628-.167-.879.045-1.752.113-2.628.167zM199.858 15.377c1.221-.206 2.439-.421 3.666-.608-1.227.187-2.445.401-3.666.608zM231.795 12.157c.675-.023 1.347-.06 2.023-.077-.676.017-1.348.054-2.023.077zM212.396 13.598c1.038-.12 2.073-.251 3.115-.357-1.042.107-2.077.238-3.115.357zM455.375 337.681l-112.117-43.445-7.336-51.367a8.01 8.01 0 0 0-7.039-6.82l-62.164-6.906 20.867-62.609a8.01 8.01 0 0 0-.43-6.109l-21.805-43.609 16.77-22.647c-58.588 24.927-105.228 72.476-128.965 131.679l.032.032 44.468 44.468c.257.257.363.588.578.869.341.445.672.87.914 1.375.222.467.34.94.467 1.434.131.498.259.975.292 1.496.034.55-.048 1.074-.127 1.62-.051.355.018.704-.083 1.058l-15.964 55.875 21.964 25.625a7.98 7.98 0 0 1-.867 11.273 7.95 7.95 0 0 1-5.203 1.93 7.95 7.95 0 0 1-6.07-2.797l-44.961-52.453c-2.883-3.352-2.492-8.398.867-11.273s8.406-2.492 11.273.867l10.513 12.265 11.766-41.181-35.796-35.796-.031-.031c-7.263 22.9-11.188 47.288-11.188 72.595 0 68.614 28.84 130.454 75.002 174.194C92.291 474.985.247 374.082.011 251.568.185 154.532 58.238 70.82 141.419 33.193 58.109 70.875 0 154.78 0 252.001c0 132.336 107.664 240 240 240-3.925 0-7.825-.109-11.705-.297l11.416-34.234a7.968 7.968 0 0 1 10.117-5.055 7.996 7.996 0 0 1 5.055 10.117l-9.764 29.28c-1.711.037-3.401.189-5.119.189 95.226 0 181.508-56.383 219.812-143.641a8.03 8.03 0 0 0 .063-6.289 8.016 8.016 0 0 0-4.5-4.39zm-37.527 75.229-41.108-12.333-37.162 18.581a8 8 0 0 1-10.734-3.578 7.999 7.999 0 0 1 3.578-10.734l21.955-10.978-20.674-6.202c-4.234-1.273-6.633-5.734-5.367-9.961 1.266-4.234 5.719-6.617 9.961-5.367l90.772 27.232a240.16 240.16 0 0 1-11.221 13.34zM193.888 16.464c1.236-.242 2.47-.49 3.714-.713-1.243.223-2.477.472-3.714.713zM218.741 12.954c.944-.083 1.884-.18 2.83-.252-.946.072-1.886.169-2.83.252zM141.654 33.09zM182.01 19.101c1.296-.323 2.591-.65 3.895-.952-1.305.302-2.599.629-3.895.952zM175.864 20.717c1.421-.394 2.841-.789 4.272-1.158-1.431.369-2.852.764-4.272 1.158zM169.971 22.434zM158.58 26.23zM187.951 17.703c1.257-.279 2.512-.564 3.776-.823-1.265.259-2.519.544-3.776.823zM164.278 24.252zM147.176 30.685zM152.787 28.408zM364.117 194.861l120-72a7.995 7.995 0 0 0 1.906-12.125L444.64 63.441l-79.578 130.853-.945.567zM495.031 216.181a8.012 8.012 0 0 0-6.148-4.133l-72-8 51.117 5.68-47.999 16.149s-8.735 10.62-17.626 20.257l58.046 29.023a8 8 0 0 0 10.734-3.578l24-48a7.984 7.984 0 0 0-.124-7.398zM342.643 117.26l-8.136 11.39 40-56a7.98 7.98 0 0 0 .648-8.227l-16-32-18.49 55.578 1.978 29.259z"/><path style="fill:#825a38" d="M333.656 166.345a7.998 7.998 0 0 0-11.313 0l-16 16a7.996 7.996 0 0 0 0 11.312c1.563 1.563 3.609 2.344 5.656 2.344s4.094-.781 5.656-2.344l16-16a7.996 7.996 0 0 0 .001-11.312zM336 228.001h16c4.422 0 8-3.578 8-8s-3.578-8-8-8h-16c-4.422 0-8 3.578-8 8s3.578 8 8 8zM421.469 299.587a7.995 7.995 0 0 0 10.117-5.055c1.398-4.195-.867-8.727-5.055-10.117l-24-8a7.974 7.974 0 0 0-10.117 5.055c-1.398 4.195.867 8.727 5.055 10.117l24 8zM461.469 164.416l-24 8c-4.188 1.391-6.453 5.922-5.055 10.117a7.995 7.995 0 0 0 10.117 5.055l24-8c4.188-1.391 6.453-5.922 5.055-10.117a7.97 7.97 0 0 0-10.117-5.055zM392 36.002a7.97 7.97 0 0 0 5.656-2.344l16-16c3.125-3.125 3.125-8.188 0-11.313s-8.188-3.125-11.313 0l-16 16a7.998 7.998 0 0 0 0 11.313A7.979 7.979 0 0 0 392 36.002zM469.656 310.345c-3.125-3.125-8.188-3.125-11.313 0s-3.125 8.188 0 11.313l8 8c1.563 1.563 3.609 2.344 5.656 2.344s4.094-.781 5.656-2.344a7.998 7.998 0 0 0 0-11.313l-7.999-8zM179.633 116.001a7.946 7.946 0 0 0 4.789-1.602l32-24a7.983 7.983 0 0 0 3.094-5.086l8-48c.727-4.352-2.219-8.477-6.578-9.203-4.383-.781-8.484 2.219-9.203 6.578l-7.477 44.836-29.43 22.078c-3.539 2.648-4.258 7.664-1.602 11.195a7.963 7.963 0 0 0 6.407 3.204zM129.008 213.009a7.998 7.998 0 0 0 0 11.313l18.179 18.179.031.031a238.567 238.567 0 0 1 5.971-16.654l-.032-.032-12.836-12.836a7.997 7.997 0 0 0-11.313-.001zM87.594 297.494a7.987 7.987 0 0 0-1.554-2.727 7.978 7.978 0 0 0-2.5-1.941l-15.961-7.98a8.006 8.006 0 0 0-10.734 3.578 7.999 7.999 0 0 0 3.578 10.734l13.041 6.52 6.952 20.854a7.995 7.995 0 0 0 10.117 5.055c4.188-1.391 6.453-5.922 5.055-10.117l-7.994-23.976zM57.308 96.622l33.036 33.036c1.563 1.563 3.609 2.344 5.656 2.344s4.094-.781 5.656-2.344a7.996 7.996 0 0 0 0-11.312L68.091 84.78a242.22 242.22 0 0 0-10.783 11.842z"/><path style="fill:#9d693c" d="m183.013 278.327-11.766 41.181-10.513-12.265c-2.867-3.359-7.914-3.742-11.273-.867s-3.75 7.922-.867 11.273l44.961 52.453a7.95 7.95 0 0 0 6.07 2.797 7.95 7.95 0 0 0 5.203-1.93c3.359-2.875 3.75-7.922.867-11.273l-21.964-25.625 15.964-55.875c.101-.354.032-.703.083-1.058.079-.546.161-1.07.127-1.62-.032-.521-.161-.998-.292-1.496-.127-.493-.245-.967-.467-1.434-.241-.505-.572-.931-.914-1.375-.214-.281-.321-.612-.578-.869l-44.468-44.468a237.546 237.546 0 0 0-5.971 16.654l35.798 35.797zM254.883 462.533a7.996 7.996 0 0 0-5.055-10.117 7.968 7.968 0 0 0-10.117 5.055l-11.416 34.234c3.88.188 7.78.297 11.705.297 1.717 0 3.408-.152 5.119-.189l9.764-29.28zM328.336 377.704c-1.266 4.227 1.133 8.688 5.367 9.961l20.674 6.202-21.955 10.978a8 8 0 0 0 3.586 15.156 7.997 7.997 0 0 0 3.57-.844l37.162-18.581 41.108 12.333c3.893-4.3 7.632-8.745 11.221-13.34l-90.772-27.232c-4.243-1.25-8.696 1.133-9.961 5.367zM320 92.001v32a8.005 8.005 0 0 0 8 8 8.007 8.007 0 0 0 6.508-3.352l8.136-11.39-1.977-29.258 18.49-55.578c-1.398-2.789-4.313-4.469-7.391-4.422a7.996 7.996 0 0 0-7.117 4.852l-24 56a7.91 7.91 0 0 0-.649 3.148zM352 156.001v32a7.997 7.997 0 0 0 12.117 6.859l.945-.567L444.64 63.441l-14.617-16.705c-1.68-1.914-4.203-2.977-6.688-2.703a7.979 7.979 0 0 0-6.148 3.773l-64 104a8.04 8.04 0 0 0-1.187 4.195zM468 209.728l-51.117-5.68a8.175 8.175 0 0 0-4.461.797l-32 16a8.003 8.003 0 0 0 0 14.312l21.954 10.977c8.891-9.638 17.626-20.257 17.626-20.257L468 209.728z"/><path style="fill:#9d693c" d="M.011 251.568C.247 374.082 92.29 474.985 211.002 489.293 164.84 445.553 136 383.712 136 315.099c0-25.307 3.925-49.695 11.187-72.598l-18.179-18.179c-3.125-3.125-3.125-8.188 0-11.313s8.188-3.125 11.313 0l12.836 12.836c23.737-59.203 70.377-106.752 128.965-131.679l41.596-56.173a8.007 8.007 0 0 0 1.219-7.102 8.027 8.027 0 0 0-4.984-5.203A239.687 239.687 0 0 0 240 12.002c-2.067 0-4.127.026-6.182.078-.677.017-1.348.054-2.023.077-1.375.046-2.75.087-4.119.157-.879.045-1.751.113-2.628.167-1.159.072-2.321.133-3.476.221-.947.072-1.887.169-2.83.252-1.077.095-2.157.179-3.23.288-1.042.106-2.077.237-3.115.357-.967.111-1.938.21-2.902.333-1.132.144-2.256.314-3.384.474-.862.122-1.728.231-2.587.363-1.227.188-2.445.402-3.666.608-.751.127-1.507.241-2.256.375-1.243.223-2.477.471-3.714.713-.72.141-1.444.268-2.161.415-1.264.259-2.519.544-3.776.823-.681.151-1.367.29-2.046.447-1.305.302-2.599.629-3.895.952-.624.155-1.252.298-1.874.458-1.431.369-2.852.763-4.272 1.158-.478.133-.96.254-1.437.39-1.493.425-2.975.874-4.456 1.327-.399.122-.802.234-1.2.358-1.506.469-3 .963-4.493 1.46-.367.122-.738.235-1.104.359a239.949 239.949 0 0 0-4.593 1.619c-.313.113-.63.218-.943.333a239.651 239.651 0 0 0-4.851 1.845c-.206.081-.414.155-.619.236a241.577 241.577 0 0 0-4.992 2.041c-.138.058-.278.112-.416.17a239.541 239.541 0 0 0-5.106 2.235l-.235.103C58.238 70.82.185 154.532.011 251.568zm174.817-149.965 29.43-22.078 7.477-44.836c.719-4.359 4.82-7.359 9.203-6.578 4.359.727 7.305 4.852 6.578 9.203l-8 48a7.98 7.98 0 0 1-3.094 5.086l-32 24a7.955 7.955 0 0 1-4.789 1.602 7.964 7.964 0 0 1-6.406-3.203 7.986 7.986 0 0 1 1.601-11.196zM90.531 331.587a7.995 7.995 0 0 1-10.117-5.055l-6.952-20.854-13.041-6.52a8 8 0 0 1-3.578-10.734 8.006 8.006 0 0 1 10.734-3.578l15.961 7.98a7.955 7.955 0 0 1 2.5 1.941 7.987 7.987 0 0 1 1.554 2.727l7.992 23.977c1.4 4.194-.865 8.726-5.053 10.116zm11.125-201.929c-1.563 1.563-3.609 2.344-5.656 2.344s-4.094-.781-5.656-2.344L57.308 96.622A242.22 242.22 0 0 1 68.091 84.78l33.565 33.565a7.998 7.998 0 0 1 0 11.313z"/></svg>