<svg xmlns="http://www.w3.org/2000/svg" viewBox="0 0 512 512" style="enable-background:new 0 0 512 512" xml:space="preserve"><circle style="fill:#74bae7" cx="256" cy="256" r="256"/><path style="fill:#89dc6d" d="M97.996 270.775c-31.359-33.771-3.617-50.657-3.617-50.657s57.894-30.155 74.781-33.772c16.886-3.619 18.091-37.389 12.061-54.276-6.016-16.843-138.592-16.523-139.265-16.522C15.44 155.875 0 204.13 0 256c0 85.229 41.661 160.718 105.717 207.248 7.136-3.925 10.532-11.109 7.639-22.409-13.588-53.069 66.657-89.254 71.174-131.468 4.516-42.215-55.173-4.823-86.534-38.596zM204.135 373.296s-26.663 28.947-19.362 50.657c7.3 21.711 33.834 31.36 47.102 0 13.271-31.359-1.203-68.75-27.74-50.657zM406.854 49.172s-15.77 25.005-33.861 25.005c-18.091 0-68.75.001-62.718 33.773 6.029 33.771 42.214 41.008 34.977 69.955-7.237 28.947-125.436 28.948-89.253 100.108 36.183 71.161 54.733 32.565 71.994 66.336 2.346 4.591 5.577 11.166 9.48 18.934l11.55 22.433c15.862 29.891 36.793 65.066 55.542 78.786a257.57 257.57 0 0 0 44.547-40.447c19.902-57.614 27.424-114.573 11.927-134.655-18.091-23.448-34.977-60.836-10.854-69.279 15.351-5.374 38.032 30.712 61.198 53.49.395-5.82.616-11.687.616-17.608.001-84.977-41.412-160.268-105.145-206.831z"/><path style="opacity:.1;fill:#231f20;enable-background:new" d="M17.809 256C17.809 117.595 127.645 4.865 264.905.17 261.947.07 258.982 0 256 0 114.616 0 0 114.613 0 256c0 141.384 114.616 256 256 256 2.982 0 5.947-.07 8.904-.17C127.645 507.135 17.809 394.402 17.809 256z"/></svg>