<?xml version="1.0" encoding="iso-8859-1"?>
<!-- Generator: Adobe Illustrator 19.0.0, SVG Export Plug-In . SVG Version: 6.00 Build 0)  -->
<svg version="1.1" id="Layer_1" xmlns="http://www.w3.org/2000/svg" xmlns:xlink="http://www.w3.org/1999/xlink" x="0px" y="0px"
	 viewBox="0 0 512 512" style="enable-background:new 0 0 512 512;" xml:space="preserve">
<circle style="fill:#74BAE7;" cx="256" cy="256" r="256"/>
<g>
	<path style="fill:#89DC6D;" d="M97.996,270.775c-31.359-33.771-3.617-50.657-3.617-50.657s57.894-30.155,74.781-33.772
		c16.886-3.619,18.091-37.389,12.061-54.276c-6.016-16.843-138.592-16.523-139.265-16.522C15.44,155.875,0,204.13,0,256
		c0,85.229,41.661,160.718,105.717,207.248c7.136-3.925,10.532-11.109,7.639-22.409c-13.588-53.069,66.657-89.254,71.174-131.468
		C189.046,267.156,129.357,304.548,97.996,270.775z"/>
	<path style="fill:#89DC6D;" d="M204.135,373.296c0,0-26.663,28.947-19.362,50.657c7.3,21.711,33.834,31.36,47.102,0
		C245.146,392.594,230.672,355.203,204.135,373.296z"/>
	<path style="fill:#89DC6D;" d="M406.854,49.172c0,0-15.77,25.005-33.861,25.005c-18.091,0-68.75,0.001-62.718,33.773
		c6.029,33.771,42.214,41.008,34.977,69.955c-7.237,28.947-125.436,28.948-89.253,100.108
		c36.183,71.161,54.733,32.565,71.994,66.336c2.346,4.591,5.577,11.166,9.48,18.934l11.55,22.433
		c15.862,29.891,36.793,65.066,55.542,78.786c16.393-11.703,31.346-25.292,44.547-40.447
		c19.902-57.614,27.424-114.573,11.927-134.655c-18.091-23.448-34.977-60.836-10.854-69.279
		c15.351-5.374,38.032,30.712,61.198,53.49c0.395-5.82,0.616-11.687,0.616-17.608C512,171.026,470.587,95.735,406.854,49.172z"/>
</g>
<path style="opacity:0.1;fill:#231F20;enable-background:new    ;" d="M17.809,256c0-138.405,109.836-251.135,247.096-255.83
	C261.947,0.07,258.982,0,256,0C114.616,0,0,114.613,0,256c0,141.384,114.616,256,256,256c2.982,0,5.947-0.07,8.904-0.17
	C127.645,507.135,17.809,394.402,17.809,256z"/>
<g>
</g>
<g>
</g>
<g>
</g>
<g>
</g>
<g>
</g>
<g>
</g>
<g>
</g>
<g>
</g>
<g>
</g>
<g>
</g>
<g>
</g>
<g>
</g>
<g>
</g>
<g>
</g>
<g>
</g>
</svg>
