<svg xmlns="http://www.w3.org/2000/svg" width="256" height="256"><path fill-opacity=".016" d="M0 128.004v128.004l128.25-.254 128.25-.254.254-127.75L257.008 0H0v128.004m.485.496c0 70.4.119 99.053.265 63.672.146-35.38.146-92.98 0-128C.604 29.153.485 58.1.485 128.5" fill="#1976D2" fill-rule="evenodd"/><path fill-opacity=".187" d="M72 32.734L17.5 64.526l-.317 29.987c-.174 16.493-.011 45.311.362 64.04l.679 34.054 54.75 31.196C103.086 240.962 128.186 255 128.751 255c.565 0 25.49-14.302 55.388-31.783l54.361-31.782-.068-63.826c-.057-54.272-.282-63.955-1.5-64.691C228.405 57.767 129.118 1.645 128 1.345c-.825-.222-26.025 13.903-56 31.389M70 128v45h9V83h-9v45m43-6.071c0 43.561.249 42.071-7.036 42.071-5.098 0-5.964-1.733-5.964-11.934V144H89.717l.521 10.991c.601 12.678 1.791 15.368 7.503 16.954 4.797 1.332 12.703 1.337 17.48.011 6.963-1.934 6.779-.652 6.779-47.179V83h-9v38.929m46.924-36.35c-2.296 2.443-2.442 3.344-2.77 17.115-.422 17.724.238 22.789 3.381 25.932 2.095 2.095 3.295 2.374 10.22 2.374 4.768 0 8.316.471 9.045 1.2.82.82 1.2 5.667 1.2 15.3 0 9.633-.38 14.48-1.2 15.3-.66.66-3.27 1.2-5.8 1.2s-5.14-.54-5.8-1.2c-.679-.679-1.2-3.933-1.2-7.5V149h-10.282l.531 8.507c.333 5.339 1.129 9.421 2.138 10.961 2.239 3.417 8.448 4.876 18.005 4.233 6.785-.457 8.259-.897 10.5-3.139l2.608-2.607v-39.128l-2.806-2.414c-2.443-2.102-3.805-2.413-10.55-2.413-4.69 0-8.217-.473-8.944-1.2-.817-.817-1.2-5.592-1.2-14.965 0-15.389.207-15.835 7.363-15.835 5.12 0 6.637 2.073 6.637 9.071V106h10v-7.032c0-7.789-1.777-13.243-4.85-14.888-1.11-.594-6.92-1.08-12.91-1.08-10.413 0-10.998.113-13.316 2.579M135 138.25v12.25h10V126h-10v12.25" fill="#1976D2" fill-rule="evenodd"/><path fill-opacity=".436" d="M72.268 32.819L18.035 64.5l.233 63.887.232 63.888 54.966 31.419c40.452 23.123 55.411 31.206 56.654 30.613.929-.444 25.577-14.757 54.773-31.807l53.084-31-.238-63.956-.239-63.955-15.5-8.892c-30.974-17.767-93.035-52.771-94.252-53.16-.686-.22-25.653 13.857-55.48 31.282M69 127.5V173h10V82H69v45.5m43.783-5.919c-.271 37.852-.368 39.644-2.224 41-1.068.781-3.18 1.419-4.693 1.419-4.336 0-5.866-3.187-5.866-12.223V144H89.828l.336 11.584.336 11.585 3.266 2.915c3.083 2.753 3.755 2.915 12 2.901 10.134-.017 13.049-1.146 15.482-5.999 1.579-3.148 1.749-7.438 1.75-44.236L123 82h-9.934l-.283 39.581m49.638-38.162c-4.956 2.158-5.591 5.178-5.237 24.87.306 16.994.393 17.638 2.74 20.133 2.201 2.341 3.139 2.578 10.179 2.578 10.895 0 10.897.003 10.897 16.5 0 15.175-.555 16.5-6.916 16.5-5.335 0-7.084-2.303-7.084-9.329V149h-10v7.599c0 8.952 1.844 13.679 6.008 15.404 1.789.741 6.645 1.058 12.904.843 14.876-.513 14.506.078 14.898-23.805.421-25.688.467-25.604-14.619-26.284-5.044-.227-7.595-.783-8.234-1.793-.51-.805-.933-7.176-.942-14.157-.014-11.992.108-12.78 2.208-14.25C170.445 91.701 172.595 91 174 91c1.405 0 3.555.701 4.777 1.557 1.873 1.311 2.223 2.492 2.223 7.5V106h10v-7.351c0-9.737-1.379-13.492-5.603-15.257-4.269-1.783-18.858-1.766-22.976.027M135 138v13h11v-26h-11v13" fill="#1976D2" fill-rule="evenodd"/><path fill-opacity=".826" d="M108.948 12.118c-9.596 5.565-33.985 19.783-54.198 31.596L18 65.191l.126 49.154c.069 27.035.406 55.67.75 63.633l.624 14.477 54.656 31.13 54.657 31.129 54.343-31.787L237.5 191.14l.257-63.46.258-63.46-54.853-31.11C152.993 16 127.879 2 127.353 2c-.526 0-8.808 4.553-18.405 10.118M69 127.5V173h11V82H69v45.5m42.985-6.25c-.009 21.588-.391 39.842-.849 40.565-.539.85-2.391 1.203-5.235 1l-4.401-.315-.5-9.5-.5-9.5-5.25-.302-5.25-.303v11.102c0 11.743 1.156 15.946 4.945 17.973 1.058.567 6.258 1.03 11.555 1.03 17.365 0 16.5 2.592 16.5-49.45V82h-11l-.015 39.25m48.036-36.425c-2.321 2.322-2.954 4.04-3.555 9.652-.907 8.469-.052 28.09 1.382 31.725 1.578 3.998 5.944 5.798 14.067 5.798 5.912 0 7.177.304 8.05 1.934 1.539 2.876 1.336 25.272-.248 27.439-.989 1.352-2.421 1.682-6.25 1.441l-4.967-.314-.296-6.75-.295-6.75h-11.102l.346 9.588c.328 9.068.499 9.718 3.153 12 2.591 2.228 3.632 2.412 13.615 2.412 16.755 0 18.068-1.853 18.068-25.5 0-22.447-1.329-24.795-14.341-25.329-6.01-.247-8.476-.758-9.398-1.944-1.749-2.251-1.721-24.2.033-26.6.989-1.352 2.421-1.682 6.25-1.441l4.967.314.5 7 .5 7 5.25.302 5.25.303v-9.63c0-9.309-.097-9.726-2.923-12.552C185.196 82.042 184.995 82 174 82c-10.906 0-11.217.063-13.979 2.825m-25.587 41.486c-.277.721-.375 6.459-.219 12.75l.285 11.439 5.75.3 5.75.3V125h-5.531c-3.641 0-5.704.448-6.035 1.311" fill="#1976D2" fill-rule="evenodd"/></svg>