<svg xmlns="http://www.w3.org/2000/svg" viewBox="0 0 512 512" style="enable-background:new 0 0 512 512" xml:space="preserve"><path style="fill:#ed5565" d="M512 255.996C512 397.389 397.404 512 256.004 512 114.627 512 0 397.389 0 255.996 0 114.611 114.627 0 256.004 0 397.404 0 512 114.611 512 255.996z"/><path style="fill:#da4453" d="M291.349 241.559c-37.845 7.953-75.751 9.008-112.658 3.148-29.906-4.742-59.282-14.008-87.313-27.531-38.032-18.337-64.72-40.454-75.345-50.485a253.753 253.753 0 0 0-7.157 22.234c14.626 12.579 39.657 31.22 72.814 47.259 29.938 14.5 61.345 24.438 93.345 29.547a324.21 324.21 0 0 0 51.063 4.039c23.094 0 46.407-2.445 69.626-7.328 74.501-15.656 131.463-13.898 166.151-9.664 24 2.922 40.906 7.406 50.031 10.273.062-2.344.094-4.695.094-7.055 0-5.141-.156-10.242-.438-15.312-10.5-2.93-25.906-6.438-45.906-8.938-66.095-8.273-131.275.774-174.307 9.813zM503 323.56c-12.438 3.562-43.812 11.938-83.438 17.938-85.118 12.906-142.307 5.188-175.276-3.562-74.095-19.657-135.689-17.032-174.347-11.376-25.562 3.75-44.625 9.219-55.969 13.063a257.358 257.358 0 0 0 7.844 19.875c10.562-3.5 28.438-8.547 52.125-11.953 36.501-5.25 94.721-7.594 164.878 11.016 28.219 7.484 59.907 11.234 94.689 11.234 27.906 0 57.836-2.422 89.618-7.25 30.282-4.609 55.532-10.438 71.907-14.688 3.031-7.921 5.719-16.016 7.969-24.297zM355.287 454.968c-12.5-7.75-27.281-13-44.001-15.594-20.281-3.172-43.501-2.422-69.001 2.219-72.657 13.25-155.877-1.141-165.628-2.922a260.82 260.82 0 0 0 31.063 26.048c34.376 3.875 88.063 7.031 138.377-2.126 40.157-7.312 73.564-3.969 96.627 9.688 9.875 5.875 15.844 12.375 19.156 16.875a250.71 250.71 0 0 0 19.18-9.734c-4.156-6.36-12.085-15.954-25.773-24.454zM489.344 150.557c-14 1.61-48.438 4.993-89.783 4.907-70.461-.148-128.837-10.258-168.775-29.243-49.563-23.547-99.221-31.953-132.127-34.859-14.719-1.297-27.376-1.656-37.313-1.617a253.116 253.116 0 0 0-16.75 21.859c19.281-1.18 98.752-3.297 177.034 33.883 43.469 20.649 103.408 31.18 178.213 31.305h1.312c49.689 0 88.502-4.711 96.408-5.742a245.992 245.992 0 0 0-8.219-20.493zM436.968 74.931c-34.845.055-110.337-2.351-152.838-22.571-39.157-18.633-90.502-28.336-125.627-33.133a255.765 255.765 0 0 0-34.813 17.571c22.845 2.008 99.846 10.352 151.253 34.82 45.845 21.806 122.431 24.696 159.807 24.696 11.095 0 18.72-.258 21.095-.344a253.65 253.65 0 0 0-18.877-21.039z"/><ellipse style="fill:#da4453" cx="170.69" cy="394.67" rx="64" ry="32"/></svg>