<svg width="510.091" height="510.091" viewBox="0 0 134.962 134.962" xmlns="http://www.w3.org/2000/svg"><g transform="translate(-47.075 -90.592)"><circle style="fill:#774329;fill-opacity:1;stroke:#fff;stroke-width:.264583;stroke-opacity:0" cx="114.555" cy="158.073" r="67.349"/><ellipse style="fill:#817456;fill-opacity:1;stroke:#fff;stroke-width:.282437;stroke-opacity:0" cx="80.783" cy="172.574" rx="5.312" ry="5.321"/><ellipse style="fill:#817456;fill-opacity:1;stroke:#fff;stroke-width:.365687;stroke-opacity:0" cx="105.094" cy="204.841" rx="6.872" ry="6.895"/><ellipse style="fill:#817456;fill-opacity:1;stroke:#fff;stroke-width:.28276;stroke-opacity:0" cx="136.83" cy="202.433" rx="5.312" ry="5.333"/><ellipse style="fill:#817456;fill-opacity:1;stroke:#fff;stroke-width:.28276;stroke-opacity:0" cx="82.683" cy="198.367" rx="5.312" ry="5.333"/><ellipse style="fill:#817456;fill-opacity:1;stroke:#fff;stroke-width:.416487;stroke-opacity:0" cx="118.359" cy="139.021" rx="7.822" ry="7.857"/><ellipse style="fill:#817456;fill-opacity:1;stroke:#fff;stroke-width:.380925;stroke-opacity:0" cx="78.727" cy="127.626" rx="7.144" ry="7.196"/><ellipse style="fill:#817456;fill-opacity:1;stroke:#fff;stroke-width:.28276;stroke-opacity:0" cx="112.227" cy="110.516" rx="5.312" ry="5.333"/><ellipse style="fill:#817456;fill-opacity:1;stroke:#fff;stroke-width:.28276;stroke-opacity:0" cx="100.987" cy="155.817" rx="5.312" ry="5.333"/><ellipse style="fill:#817456;fill-opacity:1;stroke:#fff;stroke-width:.28276;stroke-opacity:0" cx="111.36" cy="180.866" rx="5.312" ry="5.333"/><ellipse style="fill:#817456;fill-opacity:1;stroke:#fff;stroke-width:.28276;stroke-opacity:0" cx="156.201" cy="182.932" rx="5.312" ry="5.333"/><ellipse style="fill:#817456;fill-opacity:1;stroke:#fff;stroke-width:.28276;stroke-opacity:0" cx="136.193" cy="164.786" rx="5.312" ry="5.333"/><ellipse style="fill:#817456;fill-opacity:1;stroke:#fff;stroke-width:.28276;stroke-opacity:0" cx="161.211" cy="142.799" rx="5.312" ry="5.333"/><ellipse style="fill:#817456;fill-opacity:1;stroke:#fff;stroke-width:.28276;stroke-opacity:0" cx="138.417" cy="126.463" rx="5.312" ry="5.333"/><ellipse style="fill:#817456;fill-opacity:1;stroke:#fff;stroke-width:.300129;stroke-opacity:0" cx="64.232" cy="154.037" rx="5.721" ry="5.578"/></g></svg>