<svg width="510.091" height="510.091" viewBox="0 0 134.962 134.962" xmlns:xlink="http://www.w3.org/1999/xlink" xmlns="http://www.w3.org/2000/svg"><defs><linearGradient id="b"><stop style="stop-color:#839445;stop-opacity:1" offset="0"/><stop style="stop-color:#839445;stop-opacity:0" offset="1"/></linearGradient><linearGradient id="a"><stop style="stop-color:#fff;stop-opacity:1" offset="0"/><stop style="stop-color:#fff;stop-opacity:0" offset="1"/></linearGradient><linearGradient xlink:href="#a" id="c" x1="58.235" y1="148.121" x2="159.287" y2="148.121" gradientUnits="userSpaceOnUse"/><radialGradient xlink:href="#b" id="d" cx="108.255" cy="149.303" fx="108.255" fy="149.303" r="45.191" gradientUnits="userSpaceOnUse" gradientTransform="matrix(1.48375 0 0 1.48624 -53.1 -74.653)"/></defs><g transform="translate(-40.013 -79.921)"><circle style="fill:#775f29;fill-opacity:1;stroke:#fff;stroke-width:.264583;stroke-opacity:0" cx="107.521" cy="147.259" r="67.349"/><path style="fill:#776f48;fill-opacity:1;stroke:url(#c);stroke-width:.3834;stroke-opacity:0" d="M58.504 191.448c.11-.114 1.912-.7 4.004-1.304 3.355-.968 2.982-1.552 6.36-3.23 3.078-1.529 5.747-4.895 11.862-9.809l5.122-5.362 3.7-5.767 3.141-5.8c4.147-7.658 5.426-9.83 10.626-15.984.115-.12 5.086-5.622 13.484-7.938l8.585-2.445 5.72-3.214 5.249-3.944 5.023-3.773c4.426-4.566 9.568-10.893 12.477-13.533l5.287-4.798-4.09 4.543c-3.133 3.479-7.222 9.655-11.016 14.338-1.631 2.012-3.319 4.209-5.048 5.908-2.08 2.045-6.288 4.73-6.288 4.73l-9.306 4.21-6.737 2.948-4.156 3.142-6.104 3.428-8.287 11.75c-2.85 4.043-11.659 14.963-12.17 15.501-.51.538-3.302 3.27-9.238 7.993l-4.16 3.811-7.033 3.56-2.879.915c.957-.304-4.238.238-4.128.124z"/><ellipse style="fill:url(#d);fill-opacity:1;stroke:none;stroke-width:.392904;stroke-opacity:1;paint-order:stroke fill markers" cx="107.524" cy="147.247" rx="67.052" ry="67.165"/></g></svg>