<svg viewBox="0 0 32 32" xmlns="http://www.w3.org/2000/svg"><g style="fill:#fffffa;fill-opacity:1"><path d="m21.13 12.63-8.57 9.19a3.56 3.56 0 0 0-.37-.82l4.91-5.26a1 1 0 1 0-1.46-1.36l-4.91 5.26a3.69 3.69 0 0 0-.84-.31l8.57-9.19A1 1 0 0 0 17 8.78L6 20.53a3.94 3.94 0 0 0 .06 5.55 3.76 3.76 0 0 0 2.55 1 4.1 4.1 0 0 0 3-1.32L22.59 14a1.001 1.001 0 1 0-1.46-1.37zm-13.67 12a1.93 1.93 0 0 1 0-2.72 2.1 2.1 0 0 1 1.4-.68H9a1.68 1.68 0 0 1 1.18.46 1.78 1.78 0 0 1 .57 1.31 2.12 2.12 0 0 1-.58 1.44 1.94 1.94 0 0 1-2.71.18z" style="fill:#fffffa;fill-opacity:1" transform="matrix(1.00002 0 0 1 0 0)"/><path d="M18.38 11.44a1 1 0 0 0 .05 1.41 1 1 0 0 0 .68.27 1 1 0 0 0 .73-.32l2.05-2.2a1 1 0 1 0-1.46-1.36Z" style="fill:#fffffa;fill-opacity:1" transform="matrix(1.00002 0 0 1 0 0)"/><path d="M28.72 10.1a1 1 0 0 0-1.41.05L12.23 26.32A5.2 5.2 0 0 1 8.78 28 4.41 4.41 0 0 1 4 23.53 5.2 5.2 0 0 1 5.43 20L20.5 3.81A1.016 1.016 0 1 0 19 2.44L4 18.61a7.16 7.16 0 0 0-2 4.93A6.41 6.41 0 0 0 8.45 30a3.54 3.54 0 0 0 .46 0 7.22 7.22 0 0 0 4.79-2.3l15.07-16.18a1 1 0 0 0-.05-1.42Z" style="fill:#fffffa;fill-opacity:1" transform="matrix(1.00002 0 0 1 0 0)"/></g></svg>