<svg version="1.0" width="100" height="100" xml:space="preserve" xmlns="http://www.w3.org/2000/svg"><path d="M76.667 63.333c-7.363 0-13.334 5.971-13.334 13.334S69.304 90 76.667 90 90 84.03 90 76.667s-5.97-13.334-13.333-13.334zm0 20A6.675 6.675 0 0 1 70 76.667 6.673 6.673 0 0 1 76.667 70a6.67 6.67 0 0 1 6.666 6.667 6.672 6.672 0 0 1-6.666 6.666zM61.67 33.333C55.225 33.333 50 38.558 50 45c0 6.441 5.225 11.667 11.67 11.667 6.438 0 11.663-5.226 11.663-11.667 0-6.442-5.225-11.667-11.663-11.667zm0 16.667c-2.757 0-5.003-2.243-5.003-5s2.246-5 5.003-5c2.754 0 4.997 2.243 4.997 5s-2.243 5-4.997 5zM30 50c-11.048 0-20 8.955-20 19.997C10 81.045 18.952 90 30 90s20-8.955 20-20-8.952-20-20-20zm0 33.333c-7.354 0-13.333-5.982-13.333-13.336 0-7.351 5.98-13.33 13.333-13.33s13.333 5.979 13.333 13.33c0 7.354-5.979 13.336-13.333 13.336zM26.667 10C17.461 10 10 17.461 10 26.667c0 9.206 7.461 16.667 16.667 16.667 9.206 0 16.667-7.461 16.667-16.667C43.333 17.461 35.873 10 26.667 10zm0 26.667c-5.514 0-10-4.485-10-10 0-5.514 4.486-10 10-10 5.515 0 10 4.486 10 10s-4.486 10-10 10z" style="fill:#fffffa;fill-opacity:1"/><circle cx="83.333" cy="53.333" r="3.333" style="fill:#fffffa;fill-opacity:1"/><circle cx="56.667" cy="21.667" r="5" style="fill:#fffffa;fill-opacity:1"/><path d="M80.003 10C74.479 10 70 14.476 70 20s4.479 10 10.003 10C85.524 30 90 25.524 90 20s-4.476-10-9.997-10zm0 13.333c-1.839 0-3.336-1.494-3.336-3.333s1.497-3.333 3.336-3.333c1.836 0 3.33 1.494 3.33 3.333s-1.494 3.333-3.33 3.333z" style="fill:#fffffa;fill-opacity:1"/></svg>