<svg version="1.0" width="100" height="100" xml:space="preserve" xmlns="http://www.w3.org/2000/svg"><path d="M57.005 57.142 43.099 71.045a16.564 16.564 0 0 0-14.143-14.141l13.905-13.906-4.713-4.713-23.262 23.261A16.614 16.614 0 0 0 10 73.337C9.999 82.542 17.461 90.003 26.665 90c4.604 0 8.77-1.865 11.786-4.88l23.268-23.265-4.714-4.713zm-30.34 26.191c-5.522.004-9.999-4.473-9.999-9.996 0-5.524 4.475-10 9.999-10 5.522 0 10 4.476 9.999 10 0 5.523-4.475 9.996-9.999 9.996zM61.719 43.001l-4.714-4.72L85.286 10 90 14.713z" style="fill:#fffffa;fill-opacity:1"/><path transform="rotate(44.988 49.93 50.067)" style="fill:#fffffa;fill-opacity:1" d="M46.6 43.401h6.666v13.338H46.6z"/><path transform="rotate(134.999 85.287 33.571)" style="fill:#fffffa;fill-opacity:1" d="M81.953 30.238h6.666v6.666h-6.666z"/><path transform="rotate(-45.001 47.575 33.572)" style="fill:#fffffa;fill-opacity:1" d="M44.242 30.238h6.666v6.666h-6.666z"/><path transform="rotate(134.991 71.146 47.715)" style="fill:#fffffa;fill-opacity:1" d="M61.146 44.38h20v6.666h-20z"/><path transform="rotate(134.991 61.72 19.43)" style="fill:#fffffa;fill-opacity:1" d="M51.719 16.096h20v6.665h-20z"/><g style="fill:#fffffa;fill-opacity:1"><path transform="rotate(135.016 48.042 14.713)" style="fill:#fffffa;fill-opacity:1" d="M44.708 11.381h6.668v6.666h-6.668z"/><path d="m38.615 19.427-9.617 9.619a9.979 9.979 0 0 0-4.714-4.717l9.616-9.616L29.186 10 12.938 26.25A9.968 9.968 0 0 0 10 33.333a9.993 9.993 0 0 0 9.997 9.997 9.964 9.964 0 0 0 7.082-2.939l16.25-16.25-4.714-4.714zm-18.618 17.24a3.333 3.333 0 1 1 0-6.665 3.333 3.333 0 0 1 0 6.665z" style="fill:#fffffa;fill-opacity:1"/></g><path transform="rotate(134.999 82.93 54.31)" style="fill:#fffffa;fill-opacity:1" d="M76.264 50.98h13.332v6.666H76.264z"/><path d="M75.671 75.716a10.003 10.003 0 0 0-4.717-4.713l4.905-4.902-4.714-4.717L59.609 72.92a9.965 9.965 0 0 0-2.939 7.083A9.993 9.993 0 0 0 66.667 90a9.97 9.97 0 0 0 7.083-2.939L90 70.813 85.286 66.1l-9.615 9.616zm-9.004 7.621a3.334 3.334 0 1 1 0-6.667 3.334 3.334 0 0 1 0 6.667z" style="fill:#fffffa;fill-opacity:1"/></svg>