<?xml version="1.0" encoding="UTF-8" standalone="no"?>
<!-- Created with Inkscape (http://www.inkscape.org/) -->

<svg
   width="97.908234mm"
   height="97.908234mm"
   viewBox="0 0 97.908234 97.908234"
   version="1.1"
   id="svg5"
   inkscape:version="1.1 (c4e8f9ed74, 2021-05-24)"
   sodipodi:docname="stars.svg"
   xmlns:inkscape="http://www.inkscape.org/namespaces/inkscape"
   xmlns:sodipodi="http://sodipodi.sourceforge.net/DTD/sodipodi-0.dtd"
   xmlns="http://www.w3.org/2000/svg"
   xmlns:svg="http://www.w3.org/2000/svg">
  <sodipodi:namedview
     id="namedview7"
     pagecolor="#505050"
     bordercolor="#ffffff"
     borderopacity="1"
     inkscape:pageshadow="0"
     inkscape:pageopacity="0"
     inkscape:pagecheckerboard="1"
     inkscape:document-units="mm"
     showgrid="false"
     inkscape:zoom="1.2151235"
     inkscape:cx="70.774702"
     inkscape:cy="119.32944"
     inkscape:window-width="1900"
     inkscape:window-height="1009"
     inkscape:window-x="0"
     inkscape:window-y="0"
     inkscape:window-maximized="1"
     inkscape:current-layer="layer1" />
  <defs
     id="defs2" />
  <g
     inkscape:label="Layer 1"
     inkscape:groupmode="layer"
     id="layer1"
     transform="translate(-54.138186,-127.9561)">
    <path
       sodipodi:type="star"
       style="fill:#fff6f9;fill-opacity:1;stroke:#f1f0ff;stroke-opacity:0.00179599;paint-order:stroke fill markers"
       id="path4402"
       inkscape:flatsided="false"
       sodipodi:sides="6"
       sodipodi:cx="27.402052"
       sodipodi:cy="21.42915"
       sodipodi:r1="9.204174"
       sodipodi:r2="4.602087"
       sodipodi:arg1="0.86277618"
       sodipodi:arg2="1.386375"
       inkscape:rounded="0"
       inkscape:randomized="0"
       d="m 33.387812,28.421109 -5.14184,-2.467912 -3.906254,4.155753 -0.433646,-5.68692 -5.552115,-1.30504 4.708195,-3.219008 -1.64586,-5.460792 5.14184,2.467912 3.906254,-4.155752 0.433646,5.68692 5.552114,1.305039 -4.708194,3.219008 z"
       transform="matrix(0.26458333,0,0,0.26458333,54.138186,127.9561)" />
    <path
       sodipodi:type="star"
       style="fill:#fff6f9;fill-opacity:1;stroke:#f1f0ff;stroke-opacity:0.00179599;paint-order:stroke fill markers"
       id="path4404"
       inkscape:flatsided="false"
       sodipodi:sides="7"
       sodipodi:cx="41.881035"
       sodipodi:cy="74.262642"
       sodipodi:r1="12.214982"
       sodipodi:r2="6.107491"
       sodipodi:arg1="0.53798224"
       sodipodi:arg2="0.98678119"
       inkscape:rounded="0"
       inkscape:randomized="0"
       d="m 52.370582,80.521651 -7.122011,-1.163801 -1.720901,7.008278 -3.530605,-6.29383 -6.552257,3.024135 2.719419,-6.684476 -6.449629,-3.237244 6.921664,-2.041576 -1.4903,-7.060911 5.911755,4.138673 4.591257,-5.56757 0.450174,7.202417 7.215503,0.118267 -5.350397,4.842593 z"
       transform="matrix(0.26458333,0,0,0.26458333,54.138186,127.9561)" />
    <path
       sodipodi:type="star"
       style="fill:#fff6f9;fill-opacity:1;stroke:#f1f0ff;stroke-opacity:0.00179599;paint-order:stroke fill markers"
       id="path4406"
       inkscape:flatsided="false"
       sodipodi:sides="8"
       sodipodi:cx="38.399521"
       sodipodi:cy="294.50455"
       sodipodi:r1="16.798588"
       sodipodi:r2="8.3992939"
       sodipodi:arg1="0.60870358"
       sodipodi:arg2="1.0014027"
       inkscape:rounded="0"
       inkscape:randomized="0"
       d="m 52.180914,304.11005 -9.253154,-2.53138 -1.575441,9.46291 -4.753008,-8.33293 -7.805296,5.57729 2.531385,-9.25315 -9.462914,-1.57544 8.332927,-4.75301 -5.577286,-7.8053 9.253154,2.53139 1.575441,-9.46292 4.753009,8.33293 7.805296,-5.57729 -2.531385,9.25316 9.462914,1.57544 -8.332927,4.75301 z"
       transform="matrix(0.26458333,0,0,0.26458333,54.138186,127.9561)"
       inkscape:transform-center-x="0.06374276"
       inkscape:transform-center-y="0.15747517" />
    <path
       sodipodi:type="star"
       style="fill:#fff6f9;fill-opacity:1;stroke:#f1f0ff;stroke-opacity:0.00179599;paint-order:stroke fill markers"
       id="path4408"
       inkscape:flatsided="false"
       sodipodi:sides="9"
       sodipodi:cx="287.33578"
       sodipodi:cy="43.237633"
       sodipodi:r1="16.455009"
       sodipodi:r2="8.2275047"
       sodipodi:arg1="0.52939632"
       sodipodi:arg2="0.87846217"
       inkscape:rounded="0"
       inkscape:randomized="0"
       d="m 301.5383,51.547616 -8.95061,-1.976795 0.2863,9.161831 -5.5859,-7.267653 -5.6698,7.202397 0.39251,-9.157895 -8.97293,1.872881 6.18726,-6.763056 -8.07753,-4.332976 9.08693,-1.203709 -3.40256,-8.511386 7.73471,4.918868 2.8645,-8.707223 2.76335,8.739851 7.79123,-4.828854 -3.50102,8.471361 9.07236,1.308989 -8.12722,4.239027 z"
       transform="matrix(0.26458333,0,0,0.26458333,54.138186,127.9561)" />
    <path
       sodipodi:type="star"
       style="fill:#fff6f9;fill-opacity:1;stroke:#f1f0ff;stroke-opacity:0.00179599;paint-order:stroke fill markers"
       id="path4410"
       inkscape:flatsided="false"
       sodipodi:sides="8"
       sodipodi:cx="115.68719"
       sodipodi:cy="126.56893"
       sodipodi:r1="36.196854"
       sodipodi:r2="18.098427"
       sodipodi:arg1="0.68216147"
       sodipodi:arg2="1.0748606"
       inkscape:rounded="0"
       inkscape:randomized="0"
       d="m 143.78361,149.39004 -19.4842,-6.90311 -4.88201,20.08614 -8.89617,-18.65865 -17.655155,10.75094 6.903115,-19.4842 -20.086138,-4.88202 18.658649,-8.89617 -10.750938,-17.65515 19.484197,6.90311 4.88202,-20.086134 8.89617,18.658654 17.65515,-10.750943 -6.90312,19.484203 20.08614,4.88201 -18.65865,8.89617 z"
       transform="matrix(0.26458333,0,0,0.26458333,54.138186,127.9561)"
       inkscape:transform-center-x="-0.26259263"
       inkscape:transform-center-y="-0.026558482" />
    <path
       sodipodi:type="star"
       style="fill:#fff6f9;fill-opacity:1;stroke:#f1f0ff;stroke-opacity:0.00179599;paint-order:stroke fill markers"
       id="path4412"
       inkscape:flatsided="false"
       sodipodi:sides="4"
       sodipodi:cx="148.93034"
       sodipodi:cy="318.11325"
       sodipodi:r1="8.0589018"
       sodipodi:r2="4.0294509"
       sodipodi:arg1="0.15459031"
       sodipodi:arg2="0.93998847"
       inkscape:rounded="0"
       inkscape:randomized="0"
       d="m 156.89314,319.35412 -5.58624,2.01312 -3.61743,4.70881 -2.01311,-5.58624 -4.70881,-3.61743 5.58623,-2.01312 3.61744,-4.70881 2.01311,5.58624 z"
       transform="matrix(0.26458333,0,0,0.26458333,54.138186,127.9561)"
       inkscape:transform-center-y="-1.0603775e-06" />
    <path
       sodipodi:type="star"
       style="fill:#fff6f9;fill-opacity:1;stroke:#f1f0ff;stroke-opacity:0.00179599;paint-order:stroke fill markers"
       id="path4414"
       inkscape:flatsided="false"
       sodipodi:sides="4"
       sodipodi:cx="198.68416"
       sodipodi:cy="99.009361"
       sodipodi:r1="7.1997805"
       sodipodi:r2="3.5998902"
       sodipodi:arg1="0.31130191"
       sodipodi:arg2="1.0967001"
       inkscape:rounded="0"
       inkscape:randomized="0"
       d="m 205.53789,101.21464 -5.21026,0.99756 -3.84875,3.65089 -0.99756,-5.21025 -3.65089,-3.848759 5.21025,-0.997563 3.84876,-3.650884 0.99756,5.210253 z"
       transform="matrix(0.26458333,0,0,0.26458333,54.138186,127.9561)" />
    <path
       sodipodi:type="star"
       style="fill:#fff6f9;fill-opacity:1;stroke:#f1f0ff;stroke-opacity:0.00179599;paint-order:stroke fill markers"
       id="path4416"
       inkscape:flatsided="false"
       sodipodi:sides="4"
       sodipodi:cx="78.705353"
       sodipodi:cy="205.22285"
       sodipodi:r1="7.7484474"
       sodipodi:r2="3.8742237"
       sodipodi:arg1="0.86469007"
       sodipodi:arg2="1.6500882"
       inkscape:rounded="0"
       inkscape:randomized="0"
       d="m 83.733134,211.1186 -5.334654,-2.03369 -5.588876,1.16573 2.033698,-5.33466 -1.165731,-5.58887 5.334654,2.03369 5.588876,-1.16573 -2.033697,5.33466 z"
       transform="matrix(0.26458333,0,0,0.26458333,54.138186,127.9561)" />
    <path
       sodipodi:type="star"
       style="fill:#fff6f9;fill-opacity:1;stroke:#f1f0ff;stroke-opacity:0.00179599;paint-order:stroke fill markers"
       id="path4418"
       inkscape:flatsided="false"
       sodipodi:sides="12"
       sodipodi:cx="249.19022"
       sodipodi:cy="191.65041"
       sodipodi:r1="32.807098"
       sodipodi:r2="16.403549"
       sodipodi:arg1="0.55193102"
       sodipodi:arg2="0.81373041"
       inkscape:rounded="0"
       inkscape:randomized="0"
       d="m 277.12591,208.85223 -16.66987,-5.27883 4.32628,16.94207 -11.79711,-12.90654 -4.72437,16.83541 -3.76332,-17.07595 -12.50913,12.21771 5.27884,-16.66987 -16.94208,4.32628 12.90654,-11.79711 -16.83541,-4.72437 17.07595,-3.76332 -12.2177,-12.50913 16.66986,5.27884 -4.32628,-16.94208 11.79711,12.90654 4.72437,-16.83541 3.76333,17.07595 12.50912,-12.21771 -5.27883,16.66987 16.94207,-4.32628 -12.90654,11.79711 16.83541,4.72437 -17.07595,3.76333 z"
       transform="matrix(0.26458333,0,0,0.26458333,63.005216,126.62923)" />
    <path
       sodipodi:type="star"
       style="fill:#fff6f9;fill-opacity:1;stroke:#f1f0ff;stroke-opacity:0.00179599;paint-order:stroke fill markers"
       id="path4420"
       inkscape:flatsided="false"
       sodipodi:sides="10"
       sodipodi:cx="152.03252"
       sodipodi:cy="226.48805"
       sodipodi:r1="11.695992"
       sodipodi:r2="5.8479962"
       sodipodi:arg1="0.71342604"
       sodipodi:arg2="1.0275853"
       inkscape:rounded="0"
       inkscape:randomized="0"
       d="m 160.87614,234.14224 -5.82087,-2.64799 -0.36713,6.38432 -3.15273,-5.56369 -4.04963,4.94923 0.71964,-6.35425 -6.1853,1.6237 4.31714,-4.7177 -5.9584,-2.32202 6.26563,-1.27915 -3.4556,-5.38082 5.82087,2.64799 0.36713,-6.38433 3.15273,5.56369 4.04963,-4.94923 -0.71964,6.35425 6.1853,-1.6237 -4.31713,4.7177 5.9584,2.32203 -6.26563,1.27915 z"
       transform="matrix(0.26458333,0,0,0.26458333,54.138186,127.9561)" />
    <path
       sodipodi:type="star"
       style="fill:#fff6f9;fill-opacity:1;stroke:#f1f0ff;stroke-opacity:0.00179599;paint-order:stroke fill markers"
       id="path4422"
       inkscape:flatsided="false"
       sodipodi:sides="11"
       sodipodi:cx="238.44672"
       sodipodi:cy="275.7468"
       sodipodi:r1="29.257496"
       sodipodi:r2="14.628748"
       sodipodi:arg1="0.78640819"
       sodipodi:arg2="1.0720075"
       inkscape:rounded="0"
       inkscape:randomized="0"
       d="m 259.11398,296.45585 -13.66942,-7.86264 -0.80759,15.74872 -7.24859,-14.00472 -9.19379,12.81205 1.47362,-15.70041 -14.66102,5.80764 9.72797,-12.41132 -15.47349,-3.04065 14.89376,-5.18172 -11.37323,-10.92356 15.33088,3.69303 -3.66205,-15.33831 10.90056,11.39527 5.21181,-14.88326 3.00938,15.47959 12.43095,-9.70288 -5.83725,14.64927 15.70335,-1.44191 -12.83059,9.16789 13.99005,7.27687 -15.75032,0.77577 z"
       transform="matrix(0.18057412,0,0,0.18319276,70.549778,149.67389)" />
  </g>
</svg>
