<svg version="1.1" id="sparkle_x5F_stars" x="0" y="0" viewBox="0 0 128 128" style="enable-background:new 0 0 128 128" xml:space="preserve" xmlns="http://www.w3.org/2000/svg"><style type="text/css" id="style1928">.st0{display:none}.st1,.st2{display:inline;fill:#4d4d4d}.st2{display:none}</style><g id="row3"><path id="icon:5_1_" class="st2" d="M128 114s-20.4-23.1-47.9-50C107.6 37.1 128 14 128 14s-23.8 19.8-51.5 46.5c-3.1-3-6.2-6-9.2-8.8C87.7 31.1 102 15 102.9 14.1c-1 .8-17.6 14.7-38.9 34.6-21.3-19.9-37.9-33.8-38.9-34.6.9 1 15.1 17.1 35.6 37.7-3 2.8-6.1 5.8-9.2 8.8C23.8 33.8 0 14 0 14s20.4 23.1 47.9 50C20.4 90.9 0 114 0 114s23.8-19.8 51.5-46.5c3.1 3 6.2 6 9.2 8.8C40.3 96.9 26 113 25.1 113.9c1-.8 17.6-14.7 38.9-34.6 21.3 19.9 37.9 33.8 38.9 34.6-.9-1-15.1-17.1-35.5-37.7 3-2.8 6.1-5.8 9.2-8.8C104.2 94.2 128 114 128 114zM64 72.9C61.1 70 58.1 67 55 64c3.1-3 6.1-6 9-8.9 2.9 2.9 5.9 5.9 9 8.9-3.1 3-6.1 6-9 8.9z"/><path id="icon:4_2_" class="st2" d="M62.9 0C63.8 61.4 14 64.5 0 64.2c13.9 1.2 62.9 9.3 62.8 63.8h.1c0-55.3 55.7-63 65.1-63.9-.9.1-2.2.1-3.7.1-15.6 0-61.7-5-61.4-64.2zm13.3 76.9c-2.1-1.7-15.2-11.2-27 .2 11.7-11.2 3.2-22.6.7-25.5 2.7 2.8 13.6 12.1 26.6-.7-5.1 4.8-6.8 9.4-6.8 13.3 0 6.7 5.2 11.6 6.5 12.7z"/><path id="icon:3_2_" class="st2" d="M128 128c-1.2 1-24.5-24.5-52-56.8C70.8 65 65.7 59 61 53.4c-.3 4.2-.8 8.6-1.2 13.2-2.7 27-5.6 48.7-6.6 48.7-1-.1.3-22.1 3-49.1.4-4 .8-8 1.2-11.7C26.2 79.3 1 98 0 96.9c-.9-1.1 22.9-21.7 54-46.8-25.1-2.5-44.6-5-44.6-5.9.1-.9 20.4.2 46.2 2.5-16.9-20.5-28.2-35.2-27.3-35.9.8-.7 13.2 12.4 30.4 31.9 1.8-15.1 3.4-25.3 4-25.3.7.1.2 10.8-1 26.4 31.9-25.5 58-44.9 59-43.8.9 1.1-23.4 22.1-54.9 47.6 25 2.4 44.2 4.9 44.2 5.8-.1.9-19.2-.2-43.9-2.3 4.5 5.2 9.3 10.7 14.2 16.5C107.8 100 129.1 127 128 128z"/><path id="icon:2_1_" class="st2" d="M86.2 67s-8.1-4-18-10.1C68.4 63.5 64 128 64 128s-4.4-64.6-4.2-71.3c-9.7 5.7-17.7 9.4-18.7 9.9.7-.6 6.6-5.6 15.4-11.6C24.7 54.6 0 52.1 0 52.1s24.9-2.5 56.9-2.8c-8.6-6.2-14.3-11.4-15-12.1.5.2 8.6 4.2 18.3 10.3C61.5 19.6 64 0 64 0s2.6 19.7 3.8 47.8c9.8-5.8 18.1-9.6 19.1-10.1-.7.6-6.6 5.6-15.4 11.6 31.8.4 56.5 2.8 56.5 2.8s-24.8 2.5-56.8 2.8c9.1 6.7 15 12.1 15 12.1z"/><path id="icon:1_1_" class="st2" d="m70.2 66.8 49.3 26.9-3.6 6.2-46.8-31.2c-.3.4-.6.7-1 1l27.4 46.6-6.3 3.5-23.1-48.9c-.4.2-.9.3-1.3.4l1.1 54.7-7.3.1 3.9-54.7c-.7-.1-1.4-.2-2-.5l-24.7 49.6-6.5-3.1 29.4-47.5c-.6-.5-1.2-1-1.6-1.7L6.3 93.7 3 87.4l53.2-21.2c-.1-.3-.2-.7-.2-1L0 61.9l.5-7.1L56 63c.1-.4.2-.7.3-1L7.9 32.5l3.9-6 45.5 33.6c.4-.5.8-.9 1.2-1.3L29.2 11l6.2-3.6 24.9 50.3c.7-.3 1.4-.5 2.2-.5V1.8h7.3l-5.1 55.4c.4.1.8.2 1.1.3L94.5 11l6.2 3.6-32.9 44c.3.2.6.5.9.8l49.1-28 3.7 6.1-51.6 23.7c.3.5.5 1.1.6 1.7l57.1-3.3.4 7.1L70.6 65c0 .6-.2 1.2-.4 1.8z"/></g><g id="row2" style="fill:#fffffa;fill-opacity:1"><path id="icon:5_3_" class="st2" d="m68 86-5 34.2-3.8-34.4c-1.3-.3-2.6-.7-3.9-1.3L0 125.8l43.4-54.2c-.4-1.1-.8-2.4-1-3.6L7.8 63l35-3.9c.2-1.1.6-2.2 1-3.2L2.2 0l54.7 43.8c.9-.4 1.9-.6 2.9-.8L65 7.8l3.9 35.3c1 .2 2 .5 2.9.9L128 2.2 84.4 56.6c.4 1.1.7 2.1 1 3.3l34.8 5.1-34.7 3.8c-.2 1.2-.6 2.4-1.1 3.6l41.4 55.6-53.9-43.1c-1.2.5-2.5.9-3.9 1.1z" style="fill:#fffffa;fill-opacity:1"/><path id="icon:4_4_" class="st2" d="M128 83.6S99.1 77 70.2 77.8c-5.4 14.5-6.7 50.2-6.7 50.2s-3.7-26.1-18-47.9C32.3 82.5 7.6 93.7 7.6 93.7s17-13.6 25.8-29.5C24.4 54.2 0 38.5 0 38.5s24.4 9.9 44.4 9.4C48.2 35.4 45.8 0 45.8 0s2.5 23.3 18.4 44.6c13.5-3.1 47.1-20.1 47.1-20.1S93.7 37.1 80.7 57.3C92.5 68.6 128 83.6 128 83.6z" style="fill:#fffffa;fill-opacity:1"/><path id="icon:3_4_" class="st2" d="M118.9 63.6c0-14-5.3-26.7-13.9-36.4L128 0 99.8 22C90.2 13.7 77.7 8.7 64 8.7c-14.2 0-27 5.4-36.8 14.2L0 0l22.9 27.2C14.3 36.9 9.1 49.7 9.1 63.6c0 13.7 5 26.1 13.3 35.8L0 128l27.6-23.4c9.7 8.6 22.5 13.9 36.4 13.9s26.7-5.3 36.4-13.9L128 128l-23.4-27.5c8.9-9.8 14.3-22.7 14.3-36.9zM64 11.6c12.7 0 24.4 4.6 33.4 12.2L69.6 45.6c-4.7 3.2-10.8 3.2-15.5 0L29.5 24.8c9.2-8.2 21.3-13.2 34.5-13.2zM24.2 97C16.6 87.9 12 76.3 12 63.6c0-13 4.8-24.9 12.8-34l20.7 24.6c3.3 4.7 3.3 10.8 0 15.5L24.2 97zM64 115.5c-13 0-25-4.8-34.1-12.8l26.4-22.3c4.7-3.3 10.8-3.3 15.5 0l26.4 22.3c-9.2 8-21.2 12.8-34.2 12.8zm16.3-43.8c-3.2-4.6-3.2-10.8 0-15.5l22.8-26.9c8 9.1 12.8 21.1 12.8 34.2 0 13.3-5 25.4-13.2 34.6L80.3 71.7z" style="fill:#fffffa;fill-opacity:1"/><path id="icon:2_4_" class="st2" d="m64 0 7.7 41c.3 1.4 1.9 2 3 1.2l40.1-29.1-29 40.1c-.8 1.1-.2 2.7 1.2 3l41 7.7-41 7.7c-1.4.3-2 1.9-1.2 3l29.1 40.1-40.1-28.9c-1.1-.8-2.7-.2-3 1.2L64 128l-7.7-41c-.3-1.4-1.9-2-3-1.2l-40.1 29.1 29.1-40.1c.8-1.1.2-2.7-1.2-3L0 64l41-7.7c1.4-.3 2-1.9 1.2-3L13.1 13.1l40.1 29.1c1.1.8 2.7.2 3-1.2L64 0z" style="fill:#fffffa;fill-opacity:1"/><path id="icon:1_4_" d="M92.1 88.1c-.8-.5-12.3-9.4-26.1-21.1 3.8 8.8 6.4 15.8 6.8 16.7-.4-.8-3.5-6.6-7.1-14.5C65.5 97.1 64 119 64 119s-1.5-22.2-1.7-50.4c-4.3 8.2-7.8 14.3-8 14.8.2-.5 3.1-7.3 7.4-16.2-13.7 11.7-25 20.4-25.8 20.9.7-.6 10.9-10.5 24.6-22.4-10.3 3.3-18.4 5.5-19.4 5.8.9-.4 7.7-3 16.9-6.1C25.5 65.3 0 64 0 64s25.8-1.3 58.6-1.4C49 58.9 42 55.9 41.5 55.7c.5.1 8.5 2.6 18.8 6.3-13.6-11.8-23.7-21.5-24.4-22.1.7.6 12.2 9.4 26.1 21.2-3.8-8.8-6.5-15.8-6.8-16.7.4.8 3.5 6.6 7.1 14.5C62.5 30.9 64 9 64 9s1.5 22.2 1.7 50.4c4.3-8.2 7.8-14.3 8-14.7-.2.5-3.1 7.3-7.4 16.2C80 49.2 91.3 40.5 92.1 40c-.7.6-10.9 10.5-24.6 22.4 10.3-3.3 18.4-5.5 19.4-5.8-.9.4-7.7 3-16.8 6.1 32.5.2 58 1.4 58 1.4s-25.8 1.3-58.6 1.4c9.6 3.7 16.6 6.7 17.1 6.9-.6-.2-8.6-2.7-18.8-6.4 13.5 11.8 23.6 21.5 24.3 22.1z" style="fill:#fffffa;fill-opacity:1"/></g></svg>