<svg width="370.047" height="370.047" viewBox="0 0 97.908 97.908" xmlns="http://www.w3.org/2000/svg"><path style="fill:#fff6f9;fill-opacity:1;stroke:#f1f0ff;stroke-opacity:.00179599;paint-order:stroke fill markers" d="m33.388 28.421-5.142-2.468-3.906 4.156-.434-5.687-5.552-1.305 4.708-3.219-1.646-5.46 5.142 2.467 3.906-4.156.434 5.687 5.552 1.305-4.708 3.22zM52.37 80.522l-7.121-1.164-1.721 7.008-3.53-6.294-6.553 3.024 2.72-6.684-6.45-3.237 6.921-2.042-1.49-7.06 5.912 4.138 4.591-5.568.45 7.203 7.216.118-5.35 4.843zm-.19 223.588-9.252-2.531-1.576 9.463-4.753-8.333-7.805 5.577 2.531-9.253-9.463-1.576 8.333-4.753-5.577-7.805 9.253 2.531 1.576-9.462L40.2 286.3l7.805-5.577-2.531 9.253 9.463 1.576-8.333 4.753zM301.538 51.548l-8.95-1.977.286 9.162-5.586-7.268-5.67 7.202.393-9.157-8.973 1.872 6.187-6.763-8.077-4.333 9.087-1.203-3.403-8.512 7.735 4.92 2.864-8.708 2.764 8.74 7.79-4.83-3.5 8.472 9.072 1.31-8.127 4.238zM143.784 149.39l-19.485-6.903-4.882 20.086-8.896-18.659-17.655 10.751 6.903-19.484-20.086-4.882 18.659-8.896-10.751-17.655 19.484 6.903 4.882-20.086 8.896 18.658 17.655-10.75-6.903 19.484 20.086 4.882-18.658 8.896zm13.109 169.964-5.586 2.013-3.618 4.71-2.013-5.587-4.708-3.618 5.586-2.013 3.617-4.709 2.013 5.587zm48.645-218.139-5.21.997-3.85 3.651-.997-5.21-3.65-3.849 5.21-.997 3.848-3.651.998 5.21zM83.733 211.119l-5.335-2.034-5.588 1.166 2.033-5.335-1.165-5.589 5.334 2.034 5.59-1.166-2.035 5.335z" transform="scale(.26458)"/><path style="fill:#fff6f9;fill-opacity:1;stroke:#f1f0ff;stroke-opacity:.00179599;paint-order:stroke fill markers" d="m277.126 208.852-16.67-5.279 4.326 16.942-11.797-12.906-4.724 16.835-3.763-17.076-12.51 12.218 5.28-16.67-16.943 4.327 12.907-11.798-16.836-4.724 17.076-3.763-12.217-12.51 16.67 5.28-4.327-16.943 11.797 12.907 4.725-16.836 3.763 17.076 12.509-12.217-5.279 16.67 16.942-4.327-12.906 11.797 16.835 4.725-17.076 3.763z" transform="translate(8.867 -1.327) scale(.26458)"/><path style="fill:#fff6f9;fill-opacity:1;stroke:#f1f0ff;stroke-opacity:.00179599;paint-order:stroke fill markers" d="m160.876 234.142-5.82-2.648-.368 6.385-3.153-5.564-4.05 4.95.72-6.355-6.185 1.624 4.317-4.718-5.958-2.322 6.265-1.28-3.455-5.38 5.82 2.648.368-6.384 3.153 5.563 4.05-4.949-.72 6.354 6.185-1.623-4.317 4.717 5.958 2.322-6.265 1.28z" transform="scale(.26458)"/><path style="fill:#fff6f9;fill-opacity:1;stroke:#f1f0ff;stroke-opacity:.00179599;paint-order:stroke fill markers" d="m259.114 296.456-13.67-7.863-.807 15.749-7.249-14.005-9.193 12.812 1.473-15.7-14.66 5.807 9.727-12.41-15.473-3.041 14.893-5.182-11.373-10.924 15.331 3.693-3.662-15.338 10.9 11.395 5.212-14.883 3.01 15.48 12.43-9.703-5.837 14.649 15.704-1.442-12.83 9.168 13.99 7.277-15.751.776z" transform="matrix(.18057 0 0 .1832 16.412 21.718)"/></svg>